<svg xmlns="http://www.w3.org/2000/svg" xmlns:xlink="http://www.w3.org/1999/xlink" viewBox="0 0 4000 6000"><defs><style>.cls-1{fill:none;}.cls-2{fill:#f2f2f2;}.cls-3{fill:url(#Degradado_sin_nombre_46);}.cls-4{fill:#333;}.cls-5{fill:#1a1a1a;}.cls-6{fill:#666;}.cls-7{fill:#ccc;}.cls-8{fill:#b3b3b3;}.cls-9{fill:#e6e6e6;}.cls-10{fill:gray;}.cls-11{fill:#999;}.cls-12{clip-path:url(#clip-path);}.cls-13{fill:#989898;}.cls-14{fill:#979797;}.cls-15{fill:#969696;}.cls-16{fill:#959595;}.cls-17{fill:#949494;}.cls-18{fill:#939393;}.cls-19{fill:#929292;}.cls-20{fill:#919191;}.cls-21{fill:#909090;}.cls-22{fill:#8f8f8f;}.cls-23{fill:#8e8e8e;}.cls-24{fill:#8d8d8d;}.cls-25{fill:#8c8c8c;}.cls-26{fill:#8b8b8b;}.cls-27{fill:#8a8a8a;}.cls-28{fill:#898989;}.cls-29{fill:#888;}.cls-30{fill:#878787;}.cls-31{fill:#868686;}.cls-32{fill:#858585;}.cls-33{fill:#848484;}.cls-34{fill:#838383;}.cls-35{fill:#828282;}.cls-36{fill:#818181;}.cls-37{fill:#7f7f7f;}.cls-38{fill:#7e7e7e;}.cls-39{fill:#7d7d7d;}.cls-40{fill:#7c7c7c;}.cls-41{fill:#7a7a7a;}.cls-42{fill:#797979;}.cls-43{fill:#787878;}.cls-44{fill:#777;}.cls-45{fill:#757575;}.cls-46{fill:#747474;}.cls-47{fill:#727272;}.cls-48{fill:#717171;}.cls-49{fill:#6f6f6f;}.cls-50{fill:#6e6e6e;}.cls-51{fill:#6c6c6c;}.cls-52{fill:#6b6b6b;}.cls-53{fill:#696969;}.cls-54{fill:#676767;}.cls-55{fill:#646464;}.cls-56{fill:#626262;}.cls-57{fill:#606060;}.cls-58{fill:#5e5e5e;}.cls-59{fill:#5c5c5c;}.cls-60{fill:#5a5a5a;}.cls-61{fill:#585858;}.cls-62{fill:#565656;}.cls-63{fill:#535353;}.cls-64{fill:#515151;}.cls-65{fill:#4f4f4f;}.cls-66{fill:#4c4c4c;}.cls-67{fill:#4a4a4a;}.cls-68{fill:#484848;}.cls-69{fill:#454545;}.cls-70{fill:#424242;}.cls-71{fill:#404040;}.cls-72{fill:#3d3d3d;}.cls-73{fill:#3a3a3a;}.cls-74{fill:#373737;}.cls-75{fill:#343434;}.cls-76{fill:#313131;}.cls-77{fill:#2e2e2e;}.cls-78{fill:#2b2b2b;}.cls-79{fill:#282828;}.cls-80{fill:#252525;}.cls-81{fill:#212121;}.cls-82{fill:#1e1e1e;}.cls-83{fill:#171717;}.cls-84{fill:#131313;}.cls-85{fill:#101010;}.cls-86{fill:#0c0c0c;}.cls-87{fill:#080808;}.cls-88{fill:#040404;}.cls-89{clip-path:url(#clip-path-2);}.cls-90{clip-path:url(#clip-path-3);}.cls-91{fill:#b2b2b2;}.cls-92{fill:#b1b1b1;}.cls-93{fill:#b0b0b0;}.cls-94{fill:#afafaf;}.cls-95{fill:#aeaeae;}.cls-96{fill:#adadad;}.cls-97{fill:#acacac;}.cls-98{fill:#ababab;}.cls-99{fill:#aaa;}.cls-100{fill:#a9a9a9;}.cls-101{fill:#a8a8a8;}.cls-102{fill:#a7a7a7;}.cls-103{fill:#a6a6a6;}.cls-104{fill:#a5a5a5;}.cls-105{fill:#a4a4a4;}.cls-106{fill:#a3a3a3;}.cls-107{fill:#a2a2a2;}.cls-108{fill:#a1a1a1;}.cls-109{fill:#a0a0a0;}.cls-110{fill:#9f9f9f;}.cls-111{fill:#9e9e9e;}.cls-112{fill:#9d9d9d;}.cls-113{fill:#9c9c9c;}.cls-114{fill:#9b9b9b;}.cls-115{fill:#9a9a9a;}.cls-116{fill:#7b7b7b;}.cls-117{fill:#737373;}.cls-118{fill:#6d6d6d;}.cls-119{fill:#5f5f5f;}.cls-120{fill:#5d5d5d;}.cls-121{fill:#555;}.cls-122{fill:#505050;}.cls-123{fill:#4e4e4e;}.cls-124{fill:#4b4b4b;}.cls-125{fill:#3f3f3f;}.cls-126{fill:#3c3c3c;}.cls-127{fill:#393939;}.cls-128{fill:#363636;}.cls-129{clip-path:url(#clip-path-4);}.cls-130{fill:#686868;}.cls-131{fill:#656565;}.cls-132{fill:#616161;}.cls-133{fill:#525252;}.cls-134{fill:#464646;}.cls-135{fill:#414141;}.cls-136{fill:#383838;}</style><radialGradient id="Degradado_sin_nombre_46" cx="1973.48" cy="4943.72" r="3422.04" gradientTransform="translate(0.25)" gradientUnits="userSpaceOnUse"><stop offset="0" stop-color="#e6e6e6"/><stop offset="0.04" stop-color="#ddd"/><stop offset="0.29" stop-color="#a1a1a1"/><stop offset="0.52" stop-color="#727272"/><stop offset="0.72" stop-color="#4f4f4f"/><stop offset="0.89" stop-color="#3b3b3b"/><stop offset="1" stop-color="#333"/></radialGradient><clipPath id="clip-path"><path class="cls-1" d="M2617.84,4794v203.38c0,24-25,43.4-55.92,43.4h-30.24c30.89,0,55.92-19.43,55.92-43.4V4794c0-24-25-43.41-55.92-43.41h30.24C2592.81,4750.54,2617.84,4770,2617.84,4794Z"/></clipPath><clipPath id="clip-path-2"><path class="cls-1" d="M1369.12,4794v203.38c0,24,25,43.4,55.92,43.4h30.24c-30.89,0-55.92-19.43-55.92-43.4V4794c0-24,25-43.41,55.92-43.41H1425C1394.15,4750.54,1369.12,4770,1369.12,4794Z"/></clipPath><clipPath id="clip-path-3"><path class="cls-1" d="M1605.45,4619l-29.77-7.09c-27.22-6.5-59.57,6-72.25,28l-107.66,186.29c-8.49,14.69-6,29.88,4.71,40.26l-1.11-.26c-27.22-6.49-39-29.55-26.32-51.51l107.66-186.29c12.68-22,45-34.49,72.26-28l30.87,7.36C1592.85,4609.94,1600.16,4613.9,1605.45,4619Z"/></clipPath><clipPath id="clip-path-4"><path class="cls-1" d="M2460.14,4584l147.48,157.7c17.37,18.59,12.06,47.42-11.89,64.41l-23.45,16.63c23.95-17,29.27-45.82,11.89-64.41l-147.48-157.7c-17.38-18.58-50.88-19.89-74.83-2.9l23.45-16.63C2409.26,4564.08,2442.76,4565.39,2460.14,4584Z"/></clipPath></defs><g id="fondo"><rect id="fondo-2" data-name="fondo" width="3997.84" height="6000"/><g id="estrellas"><ellipse class="cls-2" cx="124.15" cy="2395.22" rx="20.15" ry="20.16"/><ellipse class="cls-2" cx="391.63" cy="2074.5" rx="20.15" ry="20.16"/><ellipse class="cls-2" cx="544.1" cy="1830.27" rx="20.15" ry="20.16"/><ellipse class="cls-2" cx="541.28" cy="1606.12" rx="20.15" ry="20.16"/><ellipse class="cls-2" cx="435.85" cy="1387.14" rx="20.15" ry="20.16"/><ellipse class="cls-2" cx="344.49" cy="1136.67" rx="20.15" ry="20.16"/><ellipse class="cls-2" cx="377.56" cy="816.01" rx="20.15" ry="20.16"/><ellipse class="cls-2" cx="493.91" cy="688.77" rx="20.15" ry="20.16"/><ellipse class="cls-2" cx="736.22" cy="585.14" rx="20.15" ry="20.16"/><ellipse class="cls-2" cx="1268.16" cy="491.71" rx="20.15" ry="20.16"/><ellipse class="cls-2" cx="1718.93" cy="446.18" rx="20.15" ry="20.16"/><ellipse class="cls-2" cx="2436.78" cy="445.07" rx="20.15" ry="20.16"/><ellipse class="cls-2" cx="2850.33" cy="445" rx="20.15" ry="20.16"/><ellipse class="cls-2" cx="3203.78" cy="431.19" rx="20.15" ry="20.16"/><ellipse class="cls-2" cx="3598.57" cy="583.73" rx="20.15" ry="20.16"/><ellipse class="cls-2" cx="3714.24" cy="772.91" rx="20.15" ry="20.16"/><ellipse class="cls-2" cx="3760.42" cy="1118.71" rx="20.15" ry="20.16"/><ellipse class="cls-2" cx="3760.1" cy="1397.29" rx="20.15" ry="20.16"/><ellipse class="cls-2" cx="3760.06" cy="1631.43" rx="20.15" ry="20.16"/><ellipse class="cls-2" cx="3869.37" cy="1998.84" rx="20.15" ry="20.16"/><ellipse class="cls-2" cx="3890.14" cy="2095.87" rx="20.15" ry="20.16"/><ellipse class="cls-2" cx="3626.16" cy="1909.29" rx="20.15" ry="20.16"/><ellipse class="cls-2" cx="3154.69" cy="1800.21" rx="20.15" ry="20.16"/><ellipse class="cls-2" cx="2467.14" cy="1732.55" rx="20.15" ry="20.16"/><ellipse class="cls-2" cx="2042.46" cy="1625.34" rx="20.15" ry="20.16"/><ellipse class="cls-2" cx="1212.7" cy="1448.62" rx="20.15" ry="20.16"/><ellipse class="cls-2" cx="1026.64" cy="1375.8" rx="20.15" ry="20.16"/><ellipse class="cls-2" cx="1407.04" cy="934.58" rx="20.15" ry="20.16"/><ellipse class="cls-2" cx="2388.73" cy="887.42" rx="20.15" ry="20.16"/><ellipse class="cls-2" cx="3237.84" cy="1129.96" rx="20.15" ry="20.16"/><ellipse class="cls-2" cx="3436" cy="877.02" rx="20.15" ry="20.16"/><ellipse class="cls-2" cx="3341.53" cy="771.21" rx="20.15" ry="20.16"/><ellipse class="cls-2" cx="3052.14" cy="526.71" rx="20.15" ry="20.16"/><ellipse class="cls-2" cx="2125.16" cy="328.69" rx="20.15" ry="20.16"/><ellipse class="cls-2" cx="1580.34" cy="294.3" rx="20.15" ry="20.16"/><ellipse class="cls-2" cx="1061.88" cy="189.05" rx="20.15" ry="20.16"/><ellipse class="cls-2" cx="726.95" cy="178.09" rx="20.15" ry="20.16"/><ellipse class="cls-2" cx="586.53" cy="178.69" rx="20.15" ry="20.16"/><ellipse class="cls-2" cx="412.9" cy="179.14" rx="20.15" ry="20.16"/><ellipse class="cls-2" cx="261.08" cy="191.07" rx="20.15" ry="20.16"/><ellipse class="cls-2" cx="156.6" cy="366.36" rx="20.15" ry="20.16"/><ellipse class="cls-2" cx="119.5" cy="827.53" rx="20.15" ry="20.16"/><ellipse class="cls-2" cx="152.16" cy="992.18" rx="20.15" ry="20.16"/><ellipse class="cls-2" cx="309.15" cy="1002.94" rx="20.15" ry="20.16"/><ellipse class="cls-2" cx="896.79" cy="681.49" rx="20.15" ry="20.16"/><ellipse class="cls-2" cx="1848.29" cy="434.67" rx="20.15" ry="20.16"/><ellipse class="cls-2" cx="2865.27" cy="334.65" rx="20.15" ry="20.16"/><ellipse class="cls-2" cx="3458.37" cy="294.16" rx="20.15" ry="20.16"/><ellipse class="cls-2" cx="3675.92" cy="167.7" rx="20.15" ry="20.16"/><ellipse class="cls-2" cx="3749.66" cy="143.64" rx="20.15" ry="20.16"/><ellipse class="cls-2" cx="3877.89" cy="921.9" rx="20.15" ry="20.16"/><ellipse class="cls-2" cx="3831.64" cy="1280.89" rx="20.15" ry="20.16"/><ellipse class="cls-2" cx="3760.35" cy="1547.16" rx="20.15" ry="20.16"/><ellipse class="cls-2" cx="3734.8" cy="1871.82" rx="20.15" ry="20.16"/><ellipse class="cls-2" cx="3730.94" cy="2067.89" rx="20.15" ry="20.16"/><ellipse class="cls-2" cx="3730.64" cy="2111.04" rx="20.15" ry="20.16"/><ellipse class="cls-2" cx="3754.52" cy="2258.81" rx="20.15" ry="20.16"/><ellipse class="cls-2" cx="3774.09" cy="2361.72" rx="20.15" ry="20.16"/><ellipse class="cls-2" cx="3803.55" cy="2429.97" rx="20.15" ry="20.16"/><ellipse class="cls-2" cx="3821.01" cy="2418.87" rx="20.15" ry="20.16"/><ellipse class="cls-2" cx="113.96" cy="2773.3" rx="20.15" ry="20.16"/><ellipse class="cls-2" cx="193.35" cy="2257.07" rx="20.15" ry="20.16"/><ellipse class="cls-2" cx="318.67" cy="2014.06" rx="20.15" ry="20.16"/><ellipse class="cls-2" cx="459.65" cy="1876.94" rx="20.15" ry="20.16"/><ellipse class="cls-2" cx="797.61" cy="1690.15" rx="20.15" ry="20.16"/><ellipse class="cls-2" cx="969.43" cy="1516.99" rx="20.15" ry="20.16"/><ellipse class="cls-2" cx="1210.34" cy="1247.5" rx="20.15" ry="20.16"/><ellipse class="cls-2" cx="1696.63" cy="1029.29" rx="20.15" ry="20.16"/><ellipse class="cls-2" cx="2249.6" cy="1063.21" rx="20.15" ry="20.16"/><ellipse class="cls-2" cx="32.36" cy="3146.7" rx="20.15" ry="20.16"/><ellipse class="cls-2" cx="116.38" cy="2881.02" rx="20.15" ry="20.16"/><ellipse class="cls-2" cx="136.71" cy="2882.75" rx="20.15" ry="20.16"/><ellipse class="cls-2" cx="3950.46" cy="2727.05" rx="20.15" ry="20.16"/><ellipse class="cls-2" cx="3939.77" cy="3130.09" rx="20.15" ry="20.16"/><ellipse class="cls-2" cx="3891.8" cy="2929.12" rx="20.15" ry="20.16"/><ellipse class="cls-2" cx="3936.91" cy="2484.1" rx="20.15" ry="20.16"/><ellipse class="cls-2" cx="3943.77" cy="3330.66" rx="20.15" ry="20.16"/><ellipse class="cls-2" cx="112.37" cy="3218.21" rx="20.15" ry="20.16"/><ellipse class="cls-2" cx="2514.07" cy="1446.88" rx="20.15" ry="20.16"/><ellipse class="cls-2" cx="2904.15" cy="431.59" rx="20.15" ry="20.16"/><ellipse class="cls-2" cx="3265.78" cy="1425.3" rx="20.15" ry="20.16"/><ellipse class="cls-2" cx="2533.98" cy="1678.37" rx="20.15" ry="20.16"/><ellipse class="cls-2" cx="1860.06" cy="1027.89" rx="20.15" ry="20.16"/><ellipse class="cls-2" cx="2603.23" cy="1324.15" rx="20.15" ry="20.16"/><ellipse class="cls-2" cx="2760.92" cy="1500.14" rx="20.15" ry="20.16"/><ellipse class="cls-2" cx="2848.05" cy="626.9" rx="20.15" ry="20.16"/><ellipse class="cls-2" cx="2847.66" cy="886.54" rx="20.15" ry="20.16"/><ellipse class="cls-2" cx="2848.43" cy="1114.97" rx="20.15" ry="20.16"/><ellipse class="cls-2" cx="869.36" cy="1773.2" rx="10.07" ry="10.08"/><ellipse class="cls-2" cx="684.74" cy="2018.02" rx="10.07" ry="10.08"/><ellipse class="cls-2" cx="993.17" cy="761.68" rx="10.07" ry="10.08"/><ellipse class="cls-2" cx="1603.35" cy="945.77" rx="10.07" ry="10.08"/><ellipse class="cls-2" cx="1261.93" cy="1260.83" rx="10.07" ry="10.08"/><ellipse class="cls-2" cx="969.4" cy="352.68" rx="10.07" ry="10.08"/><ellipse class="cls-2" cx="1534.61" cy="759.34" rx="10.07" ry="10.08"/><ellipse class="cls-2" cx="840.96" cy="1293.72" rx="10.07" ry="10.08"/><ellipse class="cls-2" cx="916.1" cy="661.84" rx="10.07" ry="10.08"/><ellipse class="cls-2" cx="1130.18" cy="946.19" rx="10.07" ry="10.08"/><ellipse class="cls-2" cx="462.61" cy="1097.63" rx="10.07" ry="10.08"/><ellipse class="cls-2" cx="841.16" cy="375.97" rx="10.07" ry="10.08"/><ellipse class="cls-2" cx="1755.51" cy="921.27" rx="10.07" ry="10.08"/><ellipse class="cls-2" cx="1569.79" cy="1169.12" rx="10.07" ry="10.08"/><ellipse class="cls-2" cx="1340.19" cy="528.18" rx="10.07" ry="10.08"/><ellipse class="cls-2" cx="3169.06" cy="527.25" rx="10.07" ry="10.08"/><ellipse class="cls-2" cx="2331.76" cy="1146.31" rx="10.07" ry="10.08"/><ellipse class="cls-2" cx="1731.79" cy="655.85" rx="10.07" ry="10.08"/><ellipse class="cls-2" cx="2331.81" cy="386.03" rx="10.07" ry="10.08"/><ellipse class="cls-2" cx="2204.83" cy="574" rx="10.07" ry="10.08"/><ellipse class="cls-2" cx="1906.12" cy="339.21" rx="10.07" ry="10.08"/><ellipse class="cls-2" cx="2611.36" cy="128.39" rx="10.07" ry="10.08"/><ellipse class="cls-2" cx="3304.6" cy="199.02" rx="10.07" ry="10.08"/><ellipse class="cls-2" cx="3376.42" cy="198.96" rx="10.07" ry="10.08"/><ellipse class="cls-2" cx="2552.56" cy="210.98" rx="10.07" ry="10.08"/><ellipse class="cls-2" cx="2067.2" cy="210.35" rx="10.07" ry="10.08"/><ellipse class="cls-2" cx="1641.19" cy="130.76" rx="10.07" ry="10.08"/><ellipse class="cls-2" cx="1592.16" cy="106.16" rx="10.07" ry="10.08"/><ellipse class="cls-2" cx="1509.86" cy="95.28" rx="10.07" ry="10.08"/><ellipse class="cls-2" cx="1871.1" cy="94.98" rx="10.07" ry="10.08"/><ellipse class="cls-2" cx="2378.93" cy="187.24" rx="10.07" ry="10.08"/><ellipse class="cls-2" cx="2643.56" cy="467.2" rx="10.07" ry="10.08"/><ellipse class="cls-2" cx="2667.22" cy="852.27" rx="10.07" ry="10.08"/><ellipse class="cls-2" cx="2758.66" cy="1085.24" rx="10.07" ry="10.08"/><ellipse class="cls-2" cx="3050.47" cy="1271.88" rx="10.07" ry="10.08"/><ellipse class="cls-2" cx="3286.37" cy="1467.32" rx="10.07" ry="10.08"/><ellipse class="cls-2" cx="3374.25" cy="1725.57" rx="10.07" ry="10.08"/><ellipse class="cls-2" cx="3409.24" cy="1785.3" rx="10.07" ry="10.08"/><ellipse class="cls-2" cx="869.26" cy="1823.38" rx="10.07" ry="10.08"/><ellipse class="cls-2" cx="1018.32" cy="1612.8" rx="10.07" ry="10.08"/><ellipse class="cls-2" cx="1455.46" cy="1355.48" rx="10.07" ry="10.08"/><ellipse class="cls-2" cx="1571.06" cy="1416.16" rx="10.07" ry="10.08"/><ellipse class="cls-2" cx="1332.89" cy="1522.01" rx="10.07" ry="10.08"/><ellipse class="cls-2" cx="1618.12" cy="1355.79" rx="10.07" ry="10.08"/><ellipse class="cls-2" cx="1892.58" cy="1414.19" rx="10.07" ry="10.08"/><ellipse class="cls-2" cx="1304.64" cy="1507.6" rx="10.07" ry="10.08"/><ellipse class="cls-2" cx="2111.95" cy="1274.27" rx="10.07" ry="10.08"/><ellipse class="cls-2" cx="2538.37" cy="1578.46" rx="10.07" ry="10.08"/><ellipse class="cls-2" cx="2249.31" cy="1612.96" rx="10.07" ry="10.08"/><ellipse class="cls-2" cx="1961.7" cy="1507.88" rx="10.07" ry="10.08"/><ellipse class="cls-2" cx="2944.35" cy="1634.62" rx="10.07" ry="10.08"/><ellipse class="cls-2" cx="2538.69" cy="1518.81" rx="10.07" ry="10.08"/><ellipse class="cls-2" cx="2450.26" cy="911.93" rx="10.07" ry="10.08"/><ellipse class="cls-2" cx="2539.76" cy="1109.41" rx="10.07" ry="10.08"/><ellipse class="cls-2" cx="1883.16" cy="1112.83" rx="10.07" ry="10.08"/><ellipse class="cls-2" cx="2330.45" cy="804.35" rx="10.07" ry="10.08"/><ellipse class="cls-2" cx="2914.43" cy="934.49" rx="10.07" ry="10.08"/><ellipse class="cls-2" cx="2818.59" cy="1272.96" rx="10.07" ry="10.08"/><ellipse class="cls-2" cx="2712.77" cy="562.02" rx="10.07" ry="10.08"/><ellipse class="cls-2" cx="3272.3" cy="654.17" rx="10.07" ry="10.08"/><ellipse class="cls-2" cx="3211.39" cy="1373.38" rx="10.07" ry="10.08"/><ellipse class="cls-2" cx="3459.22" cy="688.65" rx="10.07" ry="10.08"/><ellipse class="cls-2" cx="3728.26" cy="731.66" rx="10.07" ry="10.08"/><ellipse class="cls-2" cx="3413.27" cy="1527.45" rx="10.07" ry="10.08"/><ellipse class="cls-2" cx="659.9" cy="1760.2" rx="10.07" ry="10.08"/><ellipse class="cls-2" cx="364.21" cy="1757.39" rx="10.07" ry="10.08"/><ellipse class="cls-2" cx="329.18" cy="1106.22" rx="10.07" ry="10.08"/><ellipse class="cls-2" cx="339.96" cy="1828.52" rx="10.07" ry="10.08"/><ellipse class="cls-2" cx="223.39" cy="2013.97" rx="10.07" ry="10.08"/><ellipse class="cls-2" cx="222.88" cy="1064.54" rx="10.07" ry="10.08"/><ellipse class="cls-2" cx="235.67" cy="1250.39" rx="10.07" ry="10.08"/><ellipse class="cls-2" cx="96.58" cy="1896.62" rx="10.07" ry="10.08"/><ellipse class="cls-2" cx="15.91" cy="1387.64" rx="10.07" ry="10.08"/><ellipse class="cls-2" cx="258.92" cy="965.54" rx="10.07" ry="10.08"/><ellipse class="cls-2" cx="352.19" cy="1675.44" rx="10.07" ry="10.08"/><ellipse class="cls-2" cx="317.17" cy="1560.05" rx="10.07" ry="10.08"/><ellipse class="cls-2" cx="496.47" cy="945.37" rx="10.07" ry="10.08"/><ellipse class="cls-2" cx="530.03" cy="1745.54" rx="10.07" ry="10.08"/><ellipse class="cls-2" cx="89.81" cy="2521.51" rx="10.07" ry="10.08"/><ellipse class="cls-2" cx="71.97" cy="2591.93" rx="10.07" ry="10.08"/><ellipse class="cls-2" cx="467.47" cy="2162.91" rx="10.07" ry="10.08"/><ellipse class="cls-2" cx="495.51" cy="2137" rx="10.07" ry="10.08"/><ellipse class="cls-2" cx="475.42" cy="2206.77" rx="10.07" ry="10.08"/><ellipse class="cls-2" cx="244.77" cy="2597.82" rx="10.07" ry="10.08"/><ellipse class="cls-2" cx="202.54" cy="2827.33" rx="10.07" ry="10.08"/><ellipse class="cls-2" cx="170.89" cy="2982.01" rx="10.07" ry="10.08"/><ellipse class="cls-2" cx="135.56" cy="3095.2" rx="10.07" ry="10.08"/><ellipse class="cls-2" cx="76.06" cy="3328.35" rx="10.07" ry="10.08"/><ellipse class="cls-2" cx="47.69" cy="3499.78" rx="10.07" ry="10.08"/><ellipse class="cls-2" cx="3913.18" cy="3088.46" rx="10.07" ry="10.08"/><ellipse class="cls-2" cx="3910.01" cy="2912.59" rx="10.07" ry="10.08"/><ellipse class="cls-2" cx="3944.73" cy="2752.15" rx="10.07" ry="10.08"/><ellipse class="cls-2" cx="3959.86" cy="2633.71" rx="10.07" ry="10.08"/><ellipse class="cls-2" cx="3922.62" cy="2435.42" rx="10.07" ry="10.08"/><ellipse class="cls-2" cx="3882.88" cy="2313.63" rx="10.07" ry="10.08"/><ellipse class="cls-2" cx="3840.89" cy="1999.23" rx="10.07" ry="10.08"/><ellipse class="cls-2" cx="3854.85" cy="1841.79" rx="10.07" ry="10.08"/><ellipse class="cls-2" cx="3714.84" cy="2222.89" rx="10.07" ry="10.08"/><ellipse class="cls-2" cx="3428.73" cy="1971.17" rx="10.07" ry="10.08"/><ellipse class="cls-2" cx="3264.88" cy="1549.27" rx="10.07" ry="10.08"/><ellipse class="cls-2" cx="3284.21" cy="1487.55" rx="10.07" ry="10.08"/><ellipse class="cls-2" cx="3101.28" cy="1516.72" rx="10.07" ry="10.08"/><ellipse class="cls-2" cx="3032.16" cy="1604.99" rx="10.07" ry="10.08"/><ellipse class="cls-2" cx="2892.18" cy="1713.29" rx="10.07" ry="10.08"/><ellipse class="cls-2" cx="2815.62" cy="1707.43" rx="10.07" ry="10.08"/><ellipse class="cls-2" cx="3105.86" cy="1762.59" rx="10.07" ry="10.08"/><ellipse class="cls-2" cx="3035.09" cy="1771.02" rx="10.07" ry="10.08"/><ellipse class="cls-2" cx="2690.11" cy="1572.77" rx="10.07" ry="10.08"/><ellipse class="cls-2" cx="3028.43" cy="1142.79" rx="10.07" ry="10.08"/><ellipse class="cls-2" cx="3279.52" cy="1229.95" rx="10.07" ry="10.08"/></g><path id="suelo" class="cls-3" d="M4000,3588V5998.56H2.16V3736.45c46.68-75.68,170.14-298.75,179.46-554.8,3.78-103.77,27.39-229.21,69.81-356.25a1521.59,1521.59,0,0,1,68.21-169.8c94.51-199.18,236-379.48,420.4-458.73,351.17-150.95,575.69-740.38,1185.92-481.6S2749.2,1995.6,3083.1,1974c219.29-14.17,467,141.6,612.13,437.95,42.44,86.65,76.09,185.31,97.7,295.27,17,86.56,26.57,180.12,27.05,280.31C3821.52,3308.15,3948.41,3516.47,4000,3588Z"/><path id="sombra" class="cls-4" d="M3792.93,2707.26l-695.44,786L898.71,3534.6,251.43,2825.4a1521.59,1521.59,0,0,1,68.21-169.8c94.51-199.18,236-379.48,420.4-458.73,351.17-150.95,575.69-740.38,1185.92-481.6S2749.2,1995.6,3083.1,1974c219.29-14.17,467,141.6,612.13,437.95C3737.67,2498.64,3771.32,2597.3,3792.93,2707.26Z"/></g><g id="carpa"><path class="cls-5" d="M3093.19,3493.18,1997.08,2444.33,906.81,3534.6c217.66-766,546.54-1317.25,1090-1454.27C2540.22,2217.35,2875.53,2727.18,3093.19,3493.18Z"/><path class="cls-4" d="M1997.08,2210.11c242.62,148.31,623.57,575,1096.11,1283.07L1997.08,2444.33,906.81,3534.6c472.54-708,847.64-1178.87,1090.27-1327.18"/><polygon class="cls-6" points="3093.2 3493.18 1996.79 3667.08 906.8 3534.6 1997.08 2444.33 3093.2 3493.18"/><polygon class="cls-7" points="3093.2 3493.18 1996.79 3682.92 906.8 3534.6 1009.51 3437.41 1996.79 3562.67 2989.93 3398.24 3093.2 3493.18"/><path d="M2117.38,2557.05v787.87a92.84,92.84,0,0,0,101.4,92.45l455-63.5a76.42,76.42,0,0,0,65.86-75.68V3152.5Z"/><path class="cls-7" d="M2004.08,2444.33h-14v-357a7,7,0,0,1,7-7h0a7,7,0,0,1,7,7Z"/><path class="cls-7" d="M1996.79,3674.08a7.92,7.92,0,0,1-.85,0L906,3541.55a7,7,0,0,1-4.1-11.9L1992.13,2439.38a7,7,0,0,1,9.79-.11L3098,3488.12a7,7,0,0,1-3.75,12L1997.88,3674A6.68,6.68,0,0,1,1996.79,3674.08ZM921.92,3529.38,1996.66,3660l1081.5-171.53-1081-1034.36Z"/><polygon class="cls-8" points="1919.73 3552.9 2009.38 3487.08 2053.99 3553.2 1996.79 3562.67 1919.73 3552.9"/><polygon class="cls-8" points="1962.6 3521.42 1905.69 3278.28 2022.34 3095.4 1928.73 2831.61 1970.49 2716.68 1957.82 2483.59 1997.08 2444.33 2043.15 2488.41 2043.93 2719.56 2007.93 2831.61 2087.14 3099.72 1977.69 3294.12 2009.38 3487.08 1962.6 3521.42"/><rect class="cls-9" x="1972.25" y="3144.89" width="85.69" height="34.56" rx="16.88" transform="translate(2045.59 -587.36) rotate(32.97)"/><rect class="cls-9" x="1944.46" y="2748.75" width="95.29" height="34.56" rx="15.76" transform="translate(823.2 -436.01) rotate(15.71)"/><polygon class="cls-2" points="2201.49 2861.66 2201.4 2956.02 2281.45 2956.02 2201.49 2861.66"/><polygon class="cls-2" points="2400.98 2861.66 2401.06 2956.02 2321.02 2956.02 2400.98 2861.66"/><path class="cls-2" d="M2425.07,2980.25a123.84,123.84,0,1,1-245.3-24.23,123.86,123.86,0,0,0,242.92,0A124,124,0,0,1,2425.07,2980.25Z"/></g><g id="hoguera"><ellipse class="cls-6" cx="2002.16" cy="4928.57" rx="537.24" ry="467.88"/><polygon points="2512.85 4904.94 2197.93 4904.94 2418.05 5150.59 2298.92 5269.72 2070.05 5040.85 2070.05 5364.52 1901.57 5364.52 1901.57 5040.85 1672.7 5269.72 1553.57 5150.59 1785.13 4908.22 1458.77 4904.94 1458.77 4753.24 2512.85 4753.24 2512.85 4904.94"/><polygon class="cls-10" points="2512.85 4887.43 2189.18 4887.43 2418.05 5116.3 2298.92 5235.43 2070.05 5006.56 2070.05 5330.23 1901.57 5330.23 1901.57 5006.56 1672.7 5235.43 1553.57 5116.3 1782.44 4887.43 1458.77 4887.43 1458.77 4718.95 2512.85 4718.95 2512.85 4887.43"/><path class="cls-11" d="M2426.37,4748.2l-185.32-132.09c-21.84-15.57-21.84-40.81,0-56.37l24.77-17.66c21.84-15.57,57.25-15.57,79.09,0l185.32,132.09c21.84,15.57,21.84,40.81,0,56.37l-24.77,17.66C2483.62,4763.77,2448.21,4763.77,2426.37,4748.2Z"/><path class="cls-11" d="M1468.94,4651.26l185.31-132.09c21.84-15.56,57.25-15.56,79.09,0l24.77,17.66c21.84,15.57,21.84,40.81,0,56.37L1572.8,4725.29c-21.84,15.57-57.25,15.57-79.09,0l-24.77-17.65C1447.1,4692.07,1447.1,4666.83,1468.94,4651.26Z"/><rect class="cls-11" x="1795.83" y="5274.79" width="373.93" height="146.88" rx="55.93"/><path d="M2113.83,5421.78H1851.75a55.92,55.92,0,0,1-55.92-55.92v-30.24a55.92,55.92,0,0,0,55.92,55.92h262.08a55.92,55.92,0,0,0,55.93-55.92v30.24A55.92,55.92,0,0,1,2113.83,5421.78Z"/><rect class="cls-11" x="1389.75" y="5129.47" width="373.93" height="146.88" rx="55.93" transform="translate(-987.39 9996.83) rotate(-135)"/><path d="M1616.8,5348.14l-185.31-185.32a55.92,55.92,0,0,1,0-79.09l21.38-21.38a55.91,55.91,0,0,0,0,79.08l185.32,185.32a55.92,55.92,0,0,0,79.09,0l-21.39,21.38A55.92,55.92,0,0,1,1616.8,5348.14Z"/><path class="cls-11" d="M2533.47,5183.35l-185.32,185.32a55.93,55.93,0,0,1-79.09,0l-24.77-24.77a55.93,55.93,0,0,1,0-79.09l185.32-185.32a55.93,55.93,0,0,1,79.09,0l24.77,24.77A55.93,55.93,0,0,1,2533.47,5183.35Z"/><path d="M2534.44,5184.33l-185.32,185.31a55.9,55.9,0,0,1-79.08,0l-21.39-21.38a55.93,55.93,0,0,0,79.09,0l185.31-185.32a55.92,55.92,0,0,0,0-79.09l21.38,21.39A55.92,55.92,0,0,1,2534.44,5184.33Z"/><path class="cls-11" d="M2455.23,4822.2h178.34a55.93,55.93,0,0,1,55.93,55.93v35a55.93,55.93,0,0,1-55.93,55.93H2455.23a55.92,55.92,0,0,1-55.92-55.92v-35A55.92,55.92,0,0,1,2455.23,4822.2Z" transform="translate(-2351.24 7440.03) rotate(-90)"/><g class="cls-12"><polygon class="cls-11" points="2617.84 4753.03 2531.68 4752.74 2531.68 4750.54 2617.84 4750.54 2617.84 4753.03"/><polygon class="cls-11" points="2617.84 4754.89 2531.68 4754.6 2531.68 4752.74 2617.84 4753.03 2617.84 4754.89"/><polygon class="cls-11" points="2617.84 4756.74 2531.68 4756.46 2531.68 4754.6 2617.84 4754.89 2617.84 4756.74"/><polygon class="cls-11" points="2617.84 4758.6 2531.68 4758.32 2531.68 4756.46 2617.84 4756.74 2617.84 4758.6"/><polygon class="cls-11" points="2617.84 4760.46 2531.68 4760.18 2531.68 4758.32 2617.84 4758.6 2617.84 4760.46"/><polygon class="cls-11" points="2617.84 4762.32 2531.68 4762.03 2531.68 4760.18 2617.84 4760.46 2617.84 4762.32"/><polygon class="cls-11" points="2617.84 4764.18 2531.68 4763.89 2531.68 4762.03 2617.84 4762.32 2617.84 4764.18"/><polygon class="cls-11" points="2617.84 4766.04 2531.68 4765.75 2531.68 4763.89 2617.84 4764.18 2617.84 4766.04"/><polygon class="cls-11" points="2617.84 4767.9 2531.68 4767.61 2531.68 4765.75 2617.84 4766.04 2617.84 4767.9"/><polygon class="cls-11" points="2617.84 4769.76 2531.68 4769.47 2531.68 4767.61 2617.84 4767.9 2617.84 4769.76"/><polygon class="cls-11" points="2617.84 4771.61 2531.68 4771.33 2531.68 4769.47 2617.84 4769.76 2617.84 4771.61"/><polygon class="cls-11" points="2617.84 4773.47 2531.68 4773.19 2531.68 4771.33 2617.84 4771.61 2617.84 4773.47"/><polygon class="cls-11" points="2617.84 4775.33 2531.68 4775.05 2531.68 4773.19 2617.84 4773.47 2617.84 4775.33"/><polygon class="cls-11" points="2617.84 4777.19 2531.68 4776.9 2531.68 4775.05 2617.84 4775.33 2617.84 4777.19"/><polygon class="cls-11" points="2617.84 4779.05 2531.68 4778.76 2531.68 4776.9 2617.84 4777.19 2617.84 4779.05"/><polygon class="cls-11" points="2617.84 4780.91 2531.68 4780.62 2531.68 4778.76 2617.84 4779.05 2617.84 4780.91"/><polygon class="cls-11" points="2617.84 4782.77 2531.68 4782.48 2531.68 4780.62 2617.84 4780.91 2617.84 4782.77"/><polygon class="cls-11" points="2617.84 4784.63 2531.68 4784.34 2531.68 4782.48 2617.84 4782.77 2617.84 4784.63"/><polygon class="cls-11" points="2617.84 4786.48 2531.68 4786.2 2531.68 4784.34 2617.84 4784.63 2617.84 4786.48"/><polygon class="cls-11" points="2617.84 4788.34 2531.68 4788.06 2531.68 4786.2 2617.84 4786.48 2617.84 4788.34"/><polygon class="cls-11" points="2617.84 4790.2 2531.68 4789.92 2531.68 4788.06 2617.84 4788.34 2617.84 4790.2"/><polygon class="cls-11" points="2617.84 4792.06 2531.68 4791.77 2531.68 4789.92 2617.84 4790.2 2617.84 4792.06"/><polygon class="cls-11" points="2617.84 4793.92 2531.68 4793.63 2531.68 4791.77 2617.84 4792.06 2617.84 4793.92"/><polygon class="cls-11" points="2617.84 4795.78 2531.68 4795.49 2531.68 4793.63 2617.84 4793.92 2617.84 4795.78"/><polygon class="cls-11" points="2617.84 4797.64 2531.68 4797.35 2531.68 4795.49 2617.84 4795.78 2617.84 4797.64"/><polygon class="cls-11" points="2617.84 4799.5 2531.68 4799.21 2531.68 4797.35 2617.84 4797.64 2617.84 4799.5"/><polygon class="cls-11" points="2617.84 4801.35 2531.68 4801.07 2531.68 4799.21 2617.84 4799.5 2617.84 4801.35"/><polygon class="cls-11" points="2617.84 4803.21 2531.68 4802.93 2531.68 4801.07 2617.84 4801.35 2617.84 4803.21"/><polygon class="cls-11" points="2617.84 4805.07 2531.68 4804.79 2531.68 4802.93 2617.84 4803.21 2617.84 4805.07"/><polygon class="cls-11" points="2617.84 4806.93 2531.68 4806.65 2531.68 4804.79 2617.84 4805.07 2617.84 4806.93"/><polygon class="cls-11" points="2617.84 4808.79 2531.68 4808.5 2531.68 4806.65 2617.84 4806.93 2617.84 4808.79"/><polygon class="cls-11" points="2617.84 4810.65 2531.68 4810.36 2531.68 4808.5 2617.84 4808.79 2617.84 4810.65"/><polygon class="cls-11" points="2617.84 4812.51 2531.68 4812.22 2531.68 4810.36 2617.84 4810.65 2617.84 4812.51"/><polygon class="cls-11" points="2617.84 4814.37 2531.68 4814.08 2531.68 4812.22 2617.84 4812.51 2617.84 4814.37"/><polygon class="cls-11" points="2617.84 4816.23 2531.68 4815.94 2531.68 4814.08 2617.84 4814.37 2617.84 4816.23"/><polygon class="cls-11" points="2617.84 4818.08 2531.68 4817.8 2531.68 4815.94 2617.84 4816.23 2617.84 4818.08"/><polygon class="cls-11" points="2617.84 4819.94 2531.68 4819.66 2531.68 4817.8 2617.84 4818.08 2617.84 4819.94"/><polygon class="cls-11" points="2617.84 4821.8 2531.68 4821.52 2531.68 4819.66 2617.84 4819.94 2617.84 4821.8"/><polygon class="cls-13" points="2617.84 4823.66 2531.68 4823.37 2531.68 4821.52 2617.84 4821.8 2617.84 4823.66"/><polygon class="cls-13" points="2617.84 4825.52 2531.68 4825.23 2531.68 4823.37 2617.84 4823.66 2617.84 4825.52"/><polygon class="cls-13" points="2617.84 4827.38 2531.68 4827.09 2531.68 4825.23 2617.84 4825.52 2617.84 4827.38"/><polygon class="cls-13" points="2617.84 4829.24 2531.68 4828.95 2531.68 4827.09 2617.84 4827.38 2617.84 4829.24"/><polygon class="cls-13" points="2617.84 4831.1 2531.68 4830.81 2531.68 4828.95 2617.84 4829.24 2617.84 4831.1"/><polygon class="cls-13" points="2617.84 4832.95 2531.68 4832.67 2531.68 4830.81 2617.84 4831.1 2617.84 4832.95"/><polygon class="cls-13" points="2617.84 4834.81 2531.68 4834.53 2531.68 4832.67 2617.84 4832.95 2617.84 4834.81"/><polygon class="cls-13" points="2617.84 4836.67 2531.68 4836.39 2531.68 4834.53 2617.84 4834.81 2617.84 4836.67"/><polygon class="cls-13" points="2617.84 4838.53 2531.68 4838.24 2531.68 4836.39 2617.84 4836.67 2617.84 4838.53"/><polygon class="cls-13" points="2617.84 4840.39 2531.68 4840.1 2531.68 4838.24 2617.84 4838.53 2617.84 4840.39"/><polygon class="cls-13" points="2617.84 4842.25 2531.68 4841.96 2531.68 4840.1 2617.84 4840.39 2617.84 4842.25"/><polygon class="cls-13" points="2617.84 4844.11 2531.68 4843.82 2531.68 4841.96 2617.84 4842.25 2617.84 4844.11"/><polygon class="cls-14" points="2617.84 4845.97 2531.68 4845.68 2531.68 4843.82 2617.84 4844.11 2617.84 4845.97"/><polygon class="cls-14" points="2617.84 4847.82 2531.68 4847.54 2531.68 4845.68 2617.84 4845.97 2617.84 4847.82"/><polygon class="cls-14" points="2617.84 4849.68 2531.68 4849.4 2531.68 4847.54 2617.84 4847.82 2617.84 4849.68"/><polygon class="cls-14" points="2617.84 4851.54 2531.68 4851.26 2531.68 4849.4 2617.84 4849.68 2617.84 4851.54"/><polygon class="cls-14" points="2617.84 4853.4 2531.68 4853.11 2531.68 4851.26 2617.84 4851.54 2617.84 4853.4"/><polygon class="cls-14" points="2617.84 4855.26 2531.68 4854.97 2531.68 4853.11 2617.84 4853.4 2617.84 4855.26"/><polygon class="cls-15" points="2617.84 4857.12 2531.68 4856.83 2531.68 4854.97 2617.84 4855.26 2617.84 4857.12"/><polygon class="cls-15" points="2617.84 4858.98 2531.68 4858.69 2531.68 4856.83 2617.84 4857.12 2617.84 4858.98"/><polygon class="cls-15" points="2617.84 4860.84 2531.68 4860.55 2531.68 4858.69 2617.84 4858.98 2617.84 4860.84"/><polygon class="cls-15" points="2617.84 4862.69 2531.68 4862.41 2531.68 4860.55 2617.84 4860.84 2617.84 4862.69"/><polygon class="cls-15" points="2617.84 4864.55 2531.68 4864.27 2531.68 4862.41 2617.84 4862.69 2617.84 4864.55"/><polygon class="cls-16" points="2617.84 4866.41 2531.68 4866.13 2531.68 4864.27 2617.84 4864.55 2617.84 4866.41"/><polygon class="cls-16" points="2617.84 4868.27 2531.68 4867.98 2531.68 4866.13 2617.84 4866.41 2617.84 4868.27"/><polygon class="cls-16" points="2617.84 4870.13 2531.68 4869.84 2531.68 4867.98 2617.84 4868.27 2617.84 4870.13"/><polygon class="cls-16" points="2617.84 4871.99 2531.68 4871.7 2531.68 4869.84 2617.84 4870.13 2617.84 4871.99"/><polygon class="cls-17" points="2617.84 4873.85 2531.68 4873.56 2531.68 4871.7 2617.84 4871.99 2617.84 4873.85"/><polygon class="cls-17" points="2617.84 4875.71 2531.68 4875.42 2531.68 4873.56 2617.84 4873.85 2617.84 4875.71"/><polygon class="cls-17" points="2617.84 4877.56 2531.68 4877.28 2531.68 4875.42 2617.84 4875.71 2617.84 4877.56"/><polygon class="cls-18" points="2617.84 4879.42 2531.68 4879.14 2531.68 4877.28 2617.84 4877.56 2617.84 4879.42"/><polygon class="cls-18" points="2617.84 4881.28 2531.68 4881 2531.68 4879.14 2617.84 4879.42 2617.84 4881.28"/><polygon class="cls-18" points="2617.84 4883.14 2531.68 4882.85 2531.68 4881 2617.84 4881.28 2617.84 4883.14"/><polygon class="cls-19" points="2617.84 4885 2531.68 4884.71 2531.68 4882.85 2617.84 4883.14 2617.84 4885"/><polygon class="cls-19" points="2617.84 4886.86 2531.68 4886.57 2531.68 4884.71 2617.84 4885 2617.84 4886.86"/><polygon class="cls-20" points="2617.84 4888.72 2531.68 4888.43 2531.68 4886.57 2617.84 4886.86 2617.84 4888.72"/><polygon class="cls-20" points="2617.84 4890.58 2531.68 4890.29 2531.68 4888.43 2617.84 4888.72 2617.84 4890.58"/><polygon class="cls-20" points="2617.84 4892.44 2531.68 4892.15 2531.68 4890.29 2617.84 4890.58 2617.84 4892.44"/><polygon class="cls-21" points="2617.84 4894.29 2531.68 4894.01 2531.68 4892.15 2617.84 4892.44 2617.84 4894.29"/><polygon class="cls-21" points="2617.84 4896.15 2531.68 4895.87 2531.68 4894.01 2617.84 4894.29 2617.84 4896.15"/><polygon class="cls-22" points="2617.84 4898.01 2531.68 4897.73 2531.68 4895.87 2617.84 4896.15 2617.84 4898.01"/><polygon class="cls-22" points="2617.84 4899.87 2531.68 4899.58 2531.68 4897.73 2617.84 4898.01 2617.84 4899.87"/><polygon class="cls-23" points="2617.84 4901.73 2531.68 4901.44 2531.68 4899.58 2617.84 4899.87 2617.84 4901.73"/><polygon class="cls-23" points="2617.84 4903.59 2531.68 4903.3 2531.68 4901.44 2617.84 4901.73 2617.84 4903.59"/><polygon class="cls-24" points="2617.84 4905.45 2531.68 4905.16 2531.68 4903.3 2617.84 4903.59 2617.84 4905.45"/><polygon class="cls-25" points="2617.84 4907.31 2531.68 4907.02 2531.68 4905.16 2617.84 4905.45 2617.84 4907.31"/><polygon class="cls-25" points="2617.84 4909.16 2531.68 4908.88 2531.68 4907.02 2617.84 4907.31 2617.84 4909.16"/><polygon class="cls-26" points="2617.84 4911.02 2531.68 4910.74 2531.68 4908.88 2617.84 4909.16 2617.84 4911.02"/><polygon class="cls-27" points="2617.84 4912.88 2531.68 4912.6 2531.68 4910.74 2617.84 4911.02 2617.84 4912.88"/><polygon class="cls-27" points="2617.84 4914.74 2531.68 4914.45 2531.68 4912.6 2617.84 4912.88 2617.84 4914.74"/><polygon class="cls-28" points="2617.84 4916.6 2531.68 4916.31 2531.68 4914.45 2617.84 4914.74 2617.84 4916.6"/><polygon class="cls-29" points="2617.84 4918.46 2531.68 4918.17 2531.68 4916.31 2617.84 4916.6 2617.84 4918.46"/><polygon class="cls-30" points="2617.84 4920.32 2531.68 4920.03 2531.68 4918.17 2617.84 4918.46 2617.84 4920.32"/><polygon class="cls-30" points="2617.84 4922.18 2531.68 4921.89 2531.68 4920.03 2617.84 4920.32 2617.84 4922.18"/><polygon class="cls-31" points="2617.84 4924.03 2531.68 4923.75 2531.68 4921.89 2617.84 4922.18 2617.84 4924.03"/><polygon class="cls-32" points="2617.84 4925.89 2531.68 4925.61 2531.68 4923.75 2617.84 4924.03 2617.84 4925.89"/><polygon class="cls-33" points="2617.84 4927.75 2531.68 4927.47 2531.68 4925.61 2617.84 4925.89 2617.84 4927.75"/><polygon class="cls-34" points="2617.84 4929.61 2531.68 4929.32 2531.68 4927.47 2617.84 4927.75 2617.84 4929.61"/><polygon class="cls-35" points="2617.84 4931.47 2531.68 4931.18 2531.68 4929.32 2617.84 4929.61 2617.84 4931.47"/><polygon class="cls-36" points="2617.84 4933.33 2531.68 4933.04 2531.68 4931.18 2617.84 4931.47 2617.84 4933.33"/><polygon class="cls-10" points="2617.84 4935.19 2531.68 4934.9 2531.68 4933.04 2617.84 4933.33 2617.84 4935.19"/><polygon class="cls-37" points="2617.84 4937.05 2531.68 4936.76 2531.68 4934.9 2617.84 4935.19 2617.84 4937.05"/><polygon class="cls-38" points="2617.84 4938.9 2531.68 4938.62 2531.68 4936.76 2617.84 4937.05 2617.84 4938.9"/><polygon class="cls-39" points="2617.84 4940.76 2531.68 4940.48 2531.68 4938.62 2617.84 4938.9 2617.84 4940.76"/><polygon class="cls-40" points="2617.84 4942.62 2531.68 4942.34 2531.68 4940.48 2617.84 4940.76 2617.84 4942.62"/><polygon class="cls-41" points="2617.84 4944.48 2531.68 4944.19 2531.68 4942.34 2617.84 4942.62 2617.84 4944.48"/><polygon class="cls-42" points="2617.84 4946.34 2531.68 4946.05 2531.68 4944.19 2617.84 4944.48 2617.84 4946.34"/><polygon class="cls-43" points="2617.84 4948.2 2531.68 4947.91 2531.68 4946.05 2617.84 4946.34 2617.84 4948.2"/><polygon class="cls-44" points="2617.84 4950.06 2531.68 4949.77 2531.68 4947.91 2617.84 4948.2 2617.84 4950.06"/><polygon class="cls-45" points="2617.84 4951.91 2531.68 4951.63 2531.68 4949.77 2617.84 4950.06 2617.84 4951.91"/><polygon class="cls-46" points="2617.84 4953.77 2531.68 4953.49 2531.68 4951.63 2617.84 4951.91 2617.84 4953.77"/><polygon class="cls-47" points="2617.84 4955.63 2531.68 4955.35 2531.68 4953.49 2617.84 4953.77 2617.84 4955.63"/><polygon class="cls-48" points="2617.84 4957.49 2531.68 4957.2 2531.68 4955.35 2617.84 4955.63 2617.84 4957.49"/><polygon class="cls-49" points="2617.84 4959.35 2531.68 4959.06 2531.68 4957.2 2617.84 4957.49 2617.84 4959.35"/><polygon class="cls-50" points="2617.84 4961.21 2531.68 4960.92 2531.68 4959.06 2617.84 4959.35 2617.84 4961.21"/><polygon class="cls-51" points="2617.84 4963.07 2531.68 4962.78 2531.68 4960.92 2617.84 4961.21 2617.84 4963.07"/><polygon class="cls-52" points="2617.84 4964.93 2531.68 4964.64 2531.68 4962.78 2617.84 4963.07 2617.84 4964.93"/><polygon class="cls-53" points="2617.84 4966.79 2531.68 4966.5 2531.68 4964.64 2617.84 4964.93 2617.84 4966.79"/><polygon class="cls-54" points="2617.84 4968.64 2531.68 4968.36 2531.68 4966.5 2617.84 4966.79 2617.84 4968.64"/><polygon class="cls-6" points="2617.84 4970.5 2531.68 4970.22 2531.68 4968.36 2617.84 4968.64 2617.84 4970.5"/><polygon class="cls-55" points="2617.84 4972.36 2531.68 4972.07 2531.68 4970.22 2617.84 4970.5 2617.84 4972.36"/><polygon class="cls-56" points="2617.84 4974.22 2531.68 4973.93 2531.68 4972.07 2617.84 4972.36 2617.84 4974.22"/><polygon class="cls-57" points="2617.84 4976.08 2531.68 4975.79 2531.68 4973.93 2617.84 4974.22 2617.84 4976.08"/><polygon class="cls-58" points="2617.84 4977.94 2531.68 4977.65 2531.68 4975.79 2617.84 4976.08 2617.84 4977.94"/><polygon class="cls-59" points="2617.84 4979.8 2531.68 4979.51 2531.68 4977.65 2617.84 4977.94 2617.84 4979.8"/><polygon class="cls-60" points="2617.84 4981.66 2531.68 4981.37 2531.68 4979.51 2617.84 4979.8 2617.84 4981.66"/><polygon class="cls-61" points="2617.84 4983.52 2531.68 4983.23 2531.68 4981.37 2617.84 4981.66 2617.84 4983.52"/><polygon class="cls-62" points="2617.84 4985.37 2531.68 4985.09 2531.68 4983.23 2617.84 4983.52 2617.84 4985.37"/><polygon class="cls-63" points="2617.84 4987.23 2531.68 4986.95 2531.68 4985.09 2617.84 4985.37 2617.84 4987.23"/><polygon class="cls-64" points="2617.84 4989.09 2531.68 4988.81 2531.68 4986.95 2617.84 4987.23 2617.84 4989.09"/><polygon class="cls-65" points="2617.84 4990.95 2531.68 4990.66 2531.68 4988.81 2617.84 4989.09 2617.84 4990.95"/><polygon class="cls-66" points="2617.84 4992.81 2531.68 4992.52 2531.68 4990.66 2617.84 4990.95 2617.84 4992.81"/><polygon class="cls-67" points="2617.84 4994.67 2531.68 4994.38 2531.68 4992.52 2617.84 4992.81 2617.84 4994.67"/><polygon class="cls-68" points="2617.84 4996.53 2531.68 4996.24 2531.68 4994.38 2617.84 4994.67 2617.84 4996.53"/><polygon class="cls-69" points="2617.84 4998.39 2531.68 4998.1 2531.68 4996.24 2617.84 4996.53 2617.84 4998.39"/><polygon class="cls-70" points="2617.84 5000.24 2531.68 4999.96 2531.68 4998.1 2617.84 4998.39 2617.84 5000.24"/><polygon class="cls-71" points="2617.84 5002.1 2531.68 5001.82 2531.68 4999.96 2617.84 5000.24 2617.84 5002.1"/><polygon class="cls-72" points="2617.84 5003.96 2531.68 5003.68 2531.68 5001.82 2617.84 5002.1 2617.84 5003.96"/><polygon class="cls-73" points="2617.84 5005.82 2531.68 5005.53 2531.68 5003.68 2617.84 5003.96 2617.84 5005.82"/><polygon class="cls-74" points="2617.84 5007.68 2531.68 5007.39 2531.68 5005.53 2617.84 5005.82 2617.84 5007.68"/><polygon class="cls-75" points="2617.84 5009.54 2531.68 5009.25 2531.68 5007.39 2617.84 5007.68 2617.84 5009.54"/><polygon class="cls-76" points="2617.84 5011.4 2531.68 5011.11 2531.68 5009.25 2617.84 5009.54 2617.84 5011.4"/><polygon class="cls-77" points="2617.84 5013.26 2531.68 5012.97 2531.68 5011.11 2617.84 5011.4 2617.84 5013.26"/><polygon class="cls-78" points="2617.84 5015.11 2531.68 5014.83 2531.68 5012.97 2617.84 5013.26 2617.84 5015.11"/><polygon class="cls-79" points="2617.84 5016.97 2531.68 5016.69 2531.68 5014.83 2617.84 5015.11 2617.84 5016.97"/><polygon class="cls-80" points="2617.84 5018.83 2531.68 5018.55 2531.68 5016.69 2617.84 5016.97 2617.84 5018.83"/><polygon class="cls-81" points="2617.84 5020.69 2531.68 5020.4 2531.68 5018.55 2617.84 5018.83 2617.84 5020.69"/><polygon class="cls-82" points="2617.84 5022.55 2531.68 5022.26 2531.68 5020.4 2617.84 5020.69 2617.84 5022.55"/><polygon class="cls-5" points="2617.84 5024.41 2531.68 5024.12 2531.68 5022.26 2617.84 5022.55 2617.84 5024.41"/><polygon class="cls-83" points="2617.84 5026.27 2531.68 5025.98 2531.68 5024.12 2617.84 5024.41 2617.84 5026.27"/><polygon class="cls-84" points="2617.84 5028.13 2531.68 5027.84 2531.68 5025.98 2617.84 5026.27 2617.84 5028.13"/><polygon class="cls-85" points="2617.84 5029.98 2531.68 5029.7 2531.68 5027.84 2617.84 5028.13 2617.84 5029.98"/><polygon class="cls-86" points="2617.84 5031.84 2531.68 5031.56 2531.68 5029.7 2617.84 5029.98 2617.84 5031.84"/><polygon class="cls-87" points="2617.84 5033.7 2531.68 5033.41 2531.68 5031.56 2617.84 5031.84 2617.84 5033.7"/><polygon class="cls-88" points="2617.84 5035.56 2531.68 5035.27 2531.68 5033.41 2617.84 5033.7 2617.84 5035.56"/><polygon points="2617.84 5037.42 2531.68 5037.13 2531.68 5035.27 2617.84 5035.56 2617.84 5037.42"/><polygon points="2531.68 5037.13 2617.84 5037.42 2617.84 5040.73 2531.68 5040.73 2531.68 5037.13"/></g><path class="cls-11" d="M1353.39,4822.2h178.34a55.93,55.93,0,0,1,55.93,55.93v35a55.93,55.93,0,0,1-55.93,55.93H1353.39a55.92,55.92,0,0,1-55.92-55.92v-35A55.93,55.93,0,0,1,1353.39,4822.2Z" transform="translate(-3453.08 6338.19) rotate(-90)"/><g class="cls-89"><polygon class="cls-11" points="1455.28 4752.74 1369.12 4753.03 1369.12 4750.54 1455.28 4750.54 1455.28 4752.74"/><polygon class="cls-11" points="1455.28 4754.6 1369.12 4754.89 1369.12 4753.03 1455.28 4752.74 1455.28 4754.6"/><polygon class="cls-11" points="1455.28 4756.46 1369.12 4756.74 1369.12 4754.89 1455.28 4754.6 1455.28 4756.46"/><polygon class="cls-11" points="1455.28 4758.32 1369.12 4758.6 1369.12 4756.74 1455.28 4756.46 1455.28 4758.32"/><polygon class="cls-11" points="1455.28 4760.18 1369.12 4760.46 1369.12 4758.6 1455.28 4758.32 1455.28 4760.18"/><polygon class="cls-11" points="1455.28 4762.03 1369.12 4762.32 1369.12 4760.46 1455.28 4760.18 1455.28 4762.03"/><polygon class="cls-11" points="1455.28 4763.89 1369.12 4764.18 1369.12 4762.32 1455.28 4762.03 1455.28 4763.89"/><polygon class="cls-11" points="1455.28 4765.75 1369.12 4766.04 1369.12 4764.18 1455.28 4763.89 1455.28 4765.75"/><polygon class="cls-11" points="1455.28 4767.61 1369.12 4767.9 1369.12 4766.04 1455.28 4765.75 1455.28 4767.61"/><polygon class="cls-11" points="1455.28 4769.47 1369.12 4769.76 1369.12 4767.9 1455.28 4767.61 1455.28 4769.47"/><polygon class="cls-11" points="1455.28 4771.33 1369.12 4771.61 1369.12 4769.76 1455.28 4769.47 1455.28 4771.33"/><polygon class="cls-11" points="1455.28 4773.19 1369.12 4773.47 1369.12 4771.61 1455.28 4771.33 1455.28 4773.19"/><polygon class="cls-11" points="1455.28 4775.05 1369.12 4775.33 1369.12 4773.47 1455.28 4773.19 1455.28 4775.05"/><polygon class="cls-11" points="1455.28 4776.9 1369.12 4777.19 1369.12 4775.33 1455.28 4775.05 1455.28 4776.9"/><polygon class="cls-11" points="1455.28 4778.76 1369.12 4779.05 1369.12 4777.19 1455.28 4776.9 1455.28 4778.76"/><polygon class="cls-11" points="1455.28 4780.62 1369.12 4780.91 1369.12 4779.05 1455.28 4778.76 1455.28 4780.62"/><polygon class="cls-11" points="1455.28 4782.48 1369.12 4782.77 1369.12 4780.91 1455.28 4780.62 1455.28 4782.48"/><polygon class="cls-11" points="1455.28 4784.34 1369.12 4784.63 1369.12 4782.77 1455.28 4782.48 1455.28 4784.34"/><polygon class="cls-11" points="1455.28 4786.2 1369.12 4786.48 1369.12 4784.63 1455.28 4784.34 1455.28 4786.2"/><polygon class="cls-11" points="1455.28 4788.06 1369.12 4788.34 1369.12 4786.48 1455.28 4786.2 1455.28 4788.06"/><polygon class="cls-11" points="1455.28 4789.92 1369.12 4790.2 1369.12 4788.34 1455.28 4788.06 1455.28 4789.92"/><polygon class="cls-11" points="1455.28 4791.77 1369.12 4792.06 1369.12 4790.2 1455.28 4789.92 1455.28 4791.77"/><polygon class="cls-11" points="1455.28 4793.63 1369.12 4793.92 1369.12 4792.06 1455.28 4791.77 1455.28 4793.63"/><polygon class="cls-11" points="1455.28 4795.49 1369.12 4795.78 1369.12 4793.92 1455.28 4793.63 1455.28 4795.49"/><polygon class="cls-11" points="1455.28 4797.35 1369.12 4797.64 1369.12 4795.78 1455.28 4795.49 1455.28 4797.35"/><polygon class="cls-11" points="1455.28 4799.21 1369.12 4799.5 1369.12 4797.64 1455.28 4797.35 1455.28 4799.21"/><polygon class="cls-11" points="1455.28 4801.07 1369.12 4801.35 1369.12 4799.5 1455.28 4799.21 1455.28 4801.07"/><polygon class="cls-11" points="1455.28 4802.93 1369.12 4803.21 1369.12 4801.35 1455.28 4801.07 1455.28 4802.93"/><polygon class="cls-11" points="1455.28 4804.79 1369.12 4805.07 1369.12 4803.21 1455.28 4802.93 1455.28 4804.79"/><polygon class="cls-11" points="1455.28 4806.65 1369.12 4806.93 1369.12 4805.07 1455.28 4804.79 1455.28 4806.65"/><polygon class="cls-11" points="1455.28 4808.5 1369.12 4808.79 1369.12 4806.93 1455.28 4806.65 1455.28 4808.5"/><polygon class="cls-11" points="1455.28 4810.36 1369.12 4810.65 1369.12 4808.79 1455.28 4808.5 1455.28 4810.36"/><polygon class="cls-11" points="1455.28 4812.22 1369.12 4812.51 1369.12 4810.65 1455.28 4810.36 1455.28 4812.22"/><polygon class="cls-11" points="1455.28 4814.08 1369.12 4814.37 1369.12 4812.51 1455.28 4812.22 1455.28 4814.08"/><polygon class="cls-11" points="1455.28 4815.94 1369.12 4816.23 1369.12 4814.37 1455.28 4814.08 1455.28 4815.94"/><polygon class="cls-11" points="1455.28 4817.8 1369.12 4818.08 1369.12 4816.23 1455.28 4815.94 1455.28 4817.8"/><polygon class="cls-11" points="1455.28 4819.66 1369.12 4819.94 1369.12 4818.08 1455.28 4817.8 1455.28 4819.66"/><polygon class="cls-11" points="1455.28 4821.52 1369.12 4821.8 1369.12 4819.94 1455.28 4819.66 1455.28 4821.52"/><polygon class="cls-13" points="1455.28 4823.37 1369.12 4823.66 1369.12 4821.8 1455.28 4821.52 1455.28 4823.37"/><polygon class="cls-13" points="1455.28 4825.23 1369.12 4825.52 1369.12 4823.66 1455.28 4823.37 1455.28 4825.23"/><polygon class="cls-13" points="1455.28 4827.09 1369.12 4827.38 1369.12 4825.52 1455.28 4825.23 1455.28 4827.09"/><polygon class="cls-13" points="1455.28 4828.95 1369.12 4829.24 1369.12 4827.38 1455.28 4827.09 1455.28 4828.95"/><polygon class="cls-13" points="1455.28 4830.81 1369.12 4831.1 1369.12 4829.24 1455.28 4828.95 1455.28 4830.81"/><polygon class="cls-13" points="1455.28 4832.67 1369.12 4832.95 1369.12 4831.1 1455.28 4830.81 1455.28 4832.67"/><polygon class="cls-13" points="1455.28 4834.53 1369.12 4834.81 1369.12 4832.95 1455.28 4832.67 1455.28 4834.53"/><polygon class="cls-13" points="1455.28 4836.39 1369.12 4836.67 1369.12 4834.81 1455.28 4834.53 1455.28 4836.39"/><polygon class="cls-13" points="1455.28 4838.24 1369.12 4838.53 1369.12 4836.67 1455.28 4836.39 1455.28 4838.24"/><polygon class="cls-13" points="1455.28 4840.1 1369.12 4840.39 1369.12 4838.53 1455.28 4838.24 1455.28 4840.1"/><polygon class="cls-13" points="1455.28 4841.96 1369.12 4842.25 1369.12 4840.39 1455.28 4840.1 1455.28 4841.96"/><polygon class="cls-13" points="1455.28 4843.82 1369.12 4844.11 1369.12 4842.25 1455.28 4841.96 1455.28 4843.82"/><polygon class="cls-14" points="1455.28 4845.68 1369.12 4845.97 1369.12 4844.11 1455.28 4843.82 1455.28 4845.68"/><polygon class="cls-14" points="1455.28 4847.54 1369.12 4847.82 1369.12 4845.97 1455.28 4845.68 1455.28 4847.54"/><polygon class="cls-14" points="1455.28 4849.4 1369.12 4849.68 1369.12 4847.82 1455.28 4847.54 1455.28 4849.4"/><polygon class="cls-14" points="1455.28 4851.26 1369.12 4851.54 1369.12 4849.68 1455.28 4849.4 1455.28 4851.26"/><polygon class="cls-14" points="1455.28 4853.11 1369.12 4853.4 1369.12 4851.54 1455.28 4851.26 1455.28 4853.11"/><polygon class="cls-14" points="1455.28 4854.97 1369.12 4855.26 1369.12 4853.4 1455.28 4853.11 1455.28 4854.97"/><polygon class="cls-15" points="1455.28 4856.83 1369.12 4857.12 1369.12 4855.26 1455.28 4854.97 1455.28 4856.83"/><polygon class="cls-15" points="1455.28 4858.69 1369.12 4858.98 1369.12 4857.12 1455.28 4856.83 1455.28 4858.69"/><polygon class="cls-15" points="1455.28 4860.55 1369.12 4860.84 1369.12 4858.98 1455.28 4858.69 1455.28 4860.55"/><polygon class="cls-15" points="1455.28 4862.41 1369.12 4862.69 1369.12 4860.84 1455.28 4860.55 1455.28 4862.41"/><polygon class="cls-15" points="1455.28 4864.27 1369.12 4864.55 1369.12 4862.69 1455.28 4862.41 1455.28 4864.27"/><polygon class="cls-16" points="1455.28 4866.13 1369.12 4866.41 1369.12 4864.55 1455.28 4864.27 1455.28 4866.13"/><polygon class="cls-16" points="1455.28 4867.98 1369.12 4868.27 1369.12 4866.41 1455.28 4866.13 1455.28 4867.98"/><polygon class="cls-16" points="1455.28 4869.84 1369.12 4870.13 1369.12 4868.27 1455.28 4867.98 1455.28 4869.84"/><polygon class="cls-16" points="1455.28 4871.7 1369.12 4871.99 1369.12 4870.13 1455.28 4869.84 1455.28 4871.7"/><polygon class="cls-17" points="1455.28 4873.56 1369.12 4873.85 1369.12 4871.99 1455.28 4871.7 1455.28 4873.56"/><polygon class="cls-17" points="1455.28 4875.42 1369.12 4875.71 1369.12 4873.85 1455.28 4873.56 1455.28 4875.42"/><polygon class="cls-17" points="1455.28 4877.28 1369.12 4877.56 1369.12 4875.71 1455.28 4875.42 1455.28 4877.28"/><polygon class="cls-18" points="1455.28 4879.14 1369.12 4879.42 1369.12 4877.56 1455.28 4877.28 1455.28 4879.14"/><polygon class="cls-18" points="1455.28 4881 1369.12 4881.28 1369.12 4879.42 1455.28 4879.14 1455.28 4881"/><polygon class="cls-18" points="1455.28 4882.85 1369.12 4883.14 1369.12 4881.28 1455.28 4881 1455.28 4882.85"/><polygon class="cls-19" points="1455.28 4884.71 1369.12 4885 1369.12 4883.14 1455.28 4882.85 1455.28 4884.71"/><polygon class="cls-19" points="1455.28 4886.57 1369.12 4886.86 1369.12 4885 1455.28 4884.71 1455.28 4886.57"/><polygon class="cls-20" points="1455.28 4888.43 1369.12 4888.72 1369.12 4886.86 1455.28 4886.57 1455.28 4888.43"/><polygon class="cls-20" points="1455.28 4890.29 1369.12 4890.58 1369.12 4888.72 1455.28 4888.43 1455.28 4890.29"/><polygon class="cls-20" points="1455.28 4892.15 1369.12 4892.44 1369.12 4890.58 1455.28 4890.29 1455.28 4892.15"/><polygon class="cls-21" points="1455.28 4894.01 1369.12 4894.29 1369.12 4892.44 1455.28 4892.15 1455.28 4894.01"/><polygon class="cls-21" points="1455.28 4895.87 1369.12 4896.15 1369.12 4894.29 1455.28 4894.01 1455.28 4895.87"/><polygon class="cls-22" points="1455.28 4897.73 1369.12 4898.01 1369.12 4896.15 1455.28 4895.87 1455.28 4897.73"/><polygon class="cls-22" points="1455.28 4899.58 1369.12 4899.87 1369.12 4898.01 1455.28 4897.73 1455.28 4899.58"/><polygon class="cls-23" points="1455.28 4901.44 1369.12 4901.73 1369.12 4899.87 1455.28 4899.58 1455.28 4901.44"/><polygon class="cls-23" points="1455.28 4903.3 1369.12 4903.59 1369.12 4901.73 1455.28 4901.44 1455.28 4903.3"/><polygon class="cls-24" points="1455.28 4905.16 1369.12 4905.45 1369.12 4903.59 1455.28 4903.3 1455.28 4905.16"/><polygon class="cls-25" points="1455.28 4907.02 1369.12 4907.31 1369.12 4905.45 1455.28 4905.16 1455.28 4907.02"/><polygon class="cls-25" points="1455.28 4908.88 1369.12 4909.16 1369.12 4907.31 1455.28 4907.02 1455.28 4908.88"/><polygon class="cls-26" points="1455.28 4910.74 1369.12 4911.02 1369.12 4909.16 1455.28 4908.88 1455.28 4910.74"/><polygon class="cls-27" points="1455.28 4912.6 1369.12 4912.88 1369.12 4911.02 1455.28 4910.74 1455.28 4912.6"/><polygon class="cls-27" points="1455.28 4914.45 1369.12 4914.74 1369.12 4912.88 1455.28 4912.6 1455.28 4914.45"/><polygon class="cls-28" points="1455.28 4916.31 1369.12 4916.6 1369.12 4914.74 1455.28 4914.45 1455.28 4916.31"/><polygon class="cls-29" points="1455.28 4918.17 1369.12 4918.46 1369.12 4916.6 1455.28 4916.31 1455.28 4918.17"/><polygon class="cls-30" points="1455.28 4920.03 1369.12 4920.32 1369.12 4918.46 1455.28 4918.17 1455.28 4920.03"/><polygon class="cls-30" points="1455.28 4921.89 1369.12 4922.18 1369.12 4920.32 1455.28 4920.03 1455.28 4921.89"/><polygon class="cls-31" points="1455.28 4923.75 1369.12 4924.03 1369.12 4922.18 1455.28 4921.89 1455.28 4923.75"/><polygon class="cls-32" points="1455.28 4925.61 1369.12 4925.89 1369.12 4924.03 1455.28 4923.75 1455.28 4925.61"/><polygon class="cls-33" points="1455.28 4927.47 1369.12 4927.75 1369.12 4925.89 1455.28 4925.61 1455.28 4927.47"/><polygon class="cls-34" points="1455.28 4929.32 1369.12 4929.61 1369.12 4927.75 1455.28 4927.47 1455.28 4929.32"/><polygon class="cls-35" points="1455.28 4931.18 1369.12 4931.47 1369.12 4929.61 1455.28 4929.32 1455.28 4931.18"/><polygon class="cls-36" points="1455.28 4933.04 1369.12 4933.33 1369.12 4931.47 1455.28 4931.18 1455.28 4933.04"/><polygon class="cls-10" points="1455.28 4934.9 1369.12 4935.19 1369.12 4933.33 1455.28 4933.04 1455.28 4934.9"/><polygon class="cls-37" points="1455.28 4936.76 1369.12 4937.05 1369.12 4935.19 1455.28 4934.9 1455.28 4936.76"/><polygon class="cls-38" points="1455.28 4938.62 1369.12 4938.9 1369.12 4937.05 1455.28 4936.76 1455.28 4938.62"/><polygon class="cls-39" points="1455.28 4940.48 1369.12 4940.76 1369.12 4938.9 1455.28 4938.62 1455.28 4940.48"/><polygon class="cls-40" points="1455.28 4942.34 1369.12 4942.62 1369.12 4940.76 1455.28 4940.48 1455.28 4942.34"/><polygon class="cls-41" points="1455.28 4944.19 1369.12 4944.48 1369.12 4942.62 1455.28 4942.34 1455.28 4944.19"/><polygon class="cls-42" points="1455.28 4946.05 1369.12 4946.34 1369.12 4944.48 1455.28 4944.19 1455.28 4946.05"/><polygon class="cls-43" points="1455.28 4947.91 1369.12 4948.2 1369.12 4946.34 1455.28 4946.05 1455.28 4947.91"/><polygon class="cls-44" points="1455.28 4949.77 1369.12 4950.06 1369.12 4948.2 1455.28 4947.91 1455.28 4949.77"/><polygon class="cls-45" points="1455.28 4951.63 1369.12 4951.91 1369.12 4950.06 1455.28 4949.77 1455.28 4951.63"/><polygon class="cls-46" points="1455.28 4953.49 1369.12 4953.77 1369.12 4951.91 1455.28 4951.63 1455.28 4953.49"/><polygon class="cls-47" points="1455.28 4955.35 1369.12 4955.63 1369.12 4953.77 1455.28 4953.49 1455.28 4955.35"/><polygon class="cls-48" points="1455.28 4957.2 1369.12 4957.49 1369.12 4955.63 1455.28 4955.35 1455.28 4957.2"/><polygon class="cls-49" points="1455.28 4959.06 1369.12 4959.35 1369.12 4957.49 1455.28 4957.2 1455.28 4959.06"/><polygon class="cls-50" points="1455.28 4960.92 1369.12 4961.21 1369.12 4959.35 1455.28 4959.06 1455.28 4960.92"/><polygon class="cls-51" points="1455.28 4962.78 1369.12 4963.07 1369.12 4961.21 1455.28 4960.92 1455.28 4962.78"/><polygon class="cls-52" points="1455.28 4964.64 1369.12 4964.93 1369.12 4963.07 1455.28 4962.78 1455.28 4964.64"/><polygon class="cls-53" points="1455.28 4966.5 1369.12 4966.79 1369.12 4964.93 1455.28 4964.64 1455.28 4966.5"/><polygon class="cls-54" points="1455.28 4968.36 1369.12 4968.64 1369.12 4966.79 1455.28 4966.5 1455.28 4968.36"/><polygon class="cls-6" points="1455.28 4970.22 1369.12 4970.5 1369.12 4968.64 1455.28 4968.36 1455.28 4970.22"/><polygon class="cls-55" points="1455.28 4972.07 1369.12 4972.36 1369.12 4970.5 1455.28 4970.22 1455.28 4972.07"/><polygon class="cls-56" points="1455.28 4973.93 1369.12 4974.22 1369.12 4972.36 1455.28 4972.07 1455.28 4973.93"/><polygon class="cls-57" points="1455.28 4975.79 1369.12 4976.08 1369.12 4974.22 1455.28 4973.93 1455.28 4975.79"/><polygon class="cls-58" points="1455.28 4977.65 1369.12 4977.94 1369.12 4976.08 1455.28 4975.79 1455.28 4977.65"/><polygon class="cls-59" points="1455.28 4979.51 1369.12 4979.8 1369.12 4977.94 1455.28 4977.65 1455.28 4979.51"/><polygon class="cls-60" points="1455.28 4981.37 1369.12 4981.66 1369.12 4979.8 1455.28 4979.51 1455.28 4981.37"/><polygon class="cls-61" points="1455.28 4983.23 1369.12 4983.52 1369.12 4981.66 1455.28 4981.37 1455.28 4983.23"/><polygon class="cls-62" points="1455.28 4985.09 1369.12 4985.37 1369.12 4983.52 1455.28 4983.23 1455.28 4985.09"/><polygon class="cls-63" points="1455.28 4986.95 1369.12 4987.23 1369.12 4985.37 1455.28 4985.09 1455.28 4986.95"/><polygon class="cls-64" points="1455.28 4988.81 1369.12 4989.09 1369.12 4987.23 1455.28 4986.95 1455.28 4988.81"/><polygon class="cls-65" points="1455.28 4990.66 1369.12 4990.95 1369.12 4989.09 1455.28 4988.81 1455.28 4990.66"/><polygon class="cls-66" points="1455.28 4992.52 1369.12 4992.81 1369.12 4990.95 1455.28 4990.66 1455.28 4992.52"/><polygon class="cls-67" points="1455.28 4994.38 1369.12 4994.67 1369.12 4992.81 1455.28 4992.52 1455.28 4994.38"/><polygon class="cls-68" points="1455.28 4996.24 1369.12 4996.53 1369.12 4994.67 1455.28 4994.38 1455.28 4996.24"/><polygon class="cls-69" points="1455.28 4998.1 1369.12 4998.39 1369.12 4996.53 1455.28 4996.24 1455.28 4998.1"/><polygon class="cls-70" points="1455.28 4999.96 1369.12 5000.24 1369.12 4998.39 1455.28 4998.1 1455.28 4999.96"/><polygon class="cls-71" points="1455.28 5001.82 1369.12 5002.1 1369.12 5000.24 1455.28 4999.96 1455.28 5001.82"/><polygon class="cls-72" points="1455.28 5003.68 1369.12 5003.96 1369.12 5002.1 1455.28 5001.82 1455.28 5003.68"/><polygon class="cls-73" points="1455.28 5005.53 1369.12 5005.82 1369.12 5003.96 1455.28 5003.68 1455.28 5005.53"/><polygon class="cls-74" points="1455.28 5007.39 1369.12 5007.68 1369.12 5005.82 1455.28 5005.53 1455.28 5007.39"/><polygon class="cls-75" points="1455.28 5009.25 1369.12 5009.54 1369.12 5007.68 1455.28 5007.39 1455.28 5009.25"/><polygon class="cls-76" points="1455.28 5011.11 1369.12 5011.4 1369.12 5009.54 1455.28 5009.25 1455.28 5011.11"/><polygon class="cls-77" points="1455.28 5012.97 1369.12 5013.26 1369.12 5011.4 1455.28 5011.11 1455.28 5012.97"/><polygon class="cls-78" points="1455.28 5014.83 1369.12 5015.11 1369.12 5013.26 1455.28 5012.97 1455.28 5014.83"/><polygon class="cls-79" points="1455.28 5016.69 1369.12 5016.97 1369.12 5015.11 1455.28 5014.83 1455.28 5016.69"/><polygon class="cls-80" points="1455.28 5018.55 1369.12 5018.83 1369.12 5016.97 1455.28 5016.69 1455.28 5018.55"/><polygon class="cls-81" points="1455.28 5020.4 1369.12 5020.69 1369.12 5018.83 1455.28 5018.55 1455.28 5020.4"/><polygon class="cls-82" points="1455.28 5022.26 1369.12 5022.55 1369.12 5020.69 1455.28 5020.4 1455.28 5022.26"/><polygon class="cls-5" points="1455.28 5024.12 1369.12 5024.41 1369.12 5022.55 1455.28 5022.26 1455.28 5024.12"/><polygon class="cls-83" points="1455.28 5025.98 1369.12 5026.27 1369.12 5024.41 1455.28 5024.12 1455.28 5025.98"/><polygon class="cls-84" points="1455.28 5027.84 1369.12 5028.13 1369.12 5026.27 1455.28 5025.98 1455.28 5027.84"/><polygon class="cls-85" points="1455.28 5029.7 1369.12 5029.98 1369.12 5028.13 1455.28 5027.84 1455.28 5029.7"/><polygon class="cls-86" points="1455.28 5031.56 1369.12 5031.84 1369.12 5029.98 1455.28 5029.7 1455.28 5031.56"/><polygon class="cls-87" points="1455.28 5033.41 1369.12 5033.7 1369.12 5031.84 1455.28 5031.56 1455.28 5033.41"/><polygon class="cls-88" points="1455.28 5035.27 1369.12 5035.56 1369.12 5033.7 1455.28 5033.41 1455.28 5035.27"/><polygon points="1455.28 5037.13 1369.12 5037.42 1369.12 5035.56 1455.28 5035.27 1455.28 5037.13"/><polygon points="1369.12 5037.42 1455.28 5037.13 1455.28 5040.73 1369.12 5040.73 1369.12 5037.42"/></g><path class="cls-8" d="M2272.79,4609.19l-223.25-75.44c-26.31-8.89-35.31-32.88-20.11-53.58l17.25-23.48c15.21-20.71,48.87-30.29,75.18-21.39l223.26,75.44c26.31,8.89,35.31,32.88,20.1,53.58L2348,4587.8C2332.76,4608.51,2299.1,4618.08,2272.79,4609.19Z"/><path class="cls-8" d="M1909.24,4521.66l-212.66,95.89c-25.06,11.3-51.67,1.31-59.44-22.32l-8.81-26.8c-7.76-23.63,6.26-52,31.32-63.25l212.66-95.89c25.06-11.3,51.67-1.31,59.44,22.32l8.81,26.8C1948.32,4482,1934.3,4510.36,1909.24,4521.66Z"/><path class="cls-8" d="M1373.05,4814.68l107.66-186.29c12.68-22,45-34.49,72.26-28l30.87,7.36c27.22,6.49,39,29.55,26.31,51.5l-107.65,186.3c-12.69,21.95-45,34.49-72.26,28l-30.87-7.36C1372.15,4859.7,1360.36,4836.64,1373.05,4814.68Z"/><g class="cls-90"><polygon class="cls-8" points="1605.45 4622.85 1539.27 4593.94 1605.45 4593.94 1605.45 4622.85"/><polygon class="cls-8" points="1605.45 4624.03 1604.91 4625.27 1533.2 4593.94 1539.27 4593.94 1605.45 4622.85 1605.45 4624.03"/><polygon class="cls-8" points="1604.91 4625.27 1603.94 4627.49 1527.13 4593.94 1533.2 4593.94 1604.91 4625.27"/><polygon class="cls-8" points="1603.94 4627.49 1602.97 4629.72 1521.06 4593.94 1527.13 4593.94 1603.94 4627.49"/><polygon class="cls-8" points="1602.97 4629.72 1601.99 4631.95 1514.99 4593.94 1521.06 4593.94 1602.97 4629.72"/><polygon class="cls-8" points="1601.99 4631.95 1601.02 4634.17 1508.92 4593.94 1514.99 4593.94 1601.99 4631.95"/><polygon class="cls-8" points="1601.02 4634.17 1600.05 4636.4 1502.85 4593.94 1508.92 4593.94 1601.02 4634.17"/><polygon class="cls-8" points="1600.05 4636.4 1599.08 4638.63 1496.78 4593.94 1502.85 4593.94 1600.05 4636.4"/><polygon class="cls-8" points="1599.08 4638.63 1598.1 4640.85 1490.71 4593.94 1496.78 4593.94 1599.08 4638.63"/><polygon class="cls-8" points="1598.1 4640.85 1597.13 4643.08 1484.63 4593.94 1490.71 4593.94 1598.1 4640.85"/><polygon class="cls-8" points="1597.13 4643.08 1596.16 4645.31 1478.57 4593.94 1484.63 4593.94 1597.13 4643.08"/><polygon class="cls-8" points="1596.16 4645.31 1595.18 4647.53 1472.49 4593.94 1478.57 4593.94 1596.16 4645.31"/><polygon class="cls-8" points="1595.18 4647.53 1594.21 4649.76 1466.42 4593.94 1472.49 4593.94 1595.18 4647.53"/><polygon class="cls-8" points="1594.21 4649.76 1593.24 4651.99 1463.6 4595.35 1464.22 4593.94 1466.42 4593.94 1594.21 4649.76"/><rect class="cls-8" x="1526.72" y="4554.05" width="2.43" height="141.47" transform="translate(-3321.75 4173.41) rotate(-66.4)"/><rect class="cls-8" x="1525.75" y="4556.28" width="2.43" height="141.47" transform="translate(-3324.39 4173.96) rotate(-66.4)"/><rect class="cls-8" x="1524.77" y="4558.51" width="2.43" height="141.47" transform="translate(-3327.02 4174.49) rotate(-66.4)"/><rect class="cls-8" x="1523.8" y="4560.73" width="2.43" height="141.47" transform="translate(-3329.63 4174.75) rotate(-66.4)"/><rect class="cls-8" x="1522.83" y="4562.96" width="2.43" height="141.47" transform="translate(-3332.26 4175.29) rotate(-66.4)"/><rect class="cls-8" x="1521.86" y="4565.19" width="2.43" height="141.47" transform="translate(-3334.89 4175.82) rotate(-66.4)"/><rect class="cls-8" x="1520.88" y="4567.41" width="2.43" height="141.47" transform="translate(-3337.5 4176.08) rotate(-66.4)"/><rect class="cls-8" x="1519.91" y="4569.64" width="2.43" height="141.47" transform="translate(-3340.13 4176.63) rotate(-66.4)"/><rect class="cls-8" x="1518.94" y="4571.87" width="2.43" height="141.47" transform="translate(-3342.76 4177.15) rotate(-66.4)"/><rect class="cls-91" x="1517.96" y="4574.09" width="2.43" height="141.47" transform="translate(-3345.39 4177.59) rotate(-66.4)"/><rect class="cls-91" x="1516.99" y="4576.32" width="2.43" height="141.47" transform="translate(-3347.99 4177.77) rotate(-66.4)"/><rect class="cls-91" x="1516.02" y="4578.55" width="2.43" height="141.47" transform="translate(-3350.64 4178.48) rotate(-66.4)"/><rect class="cls-91" x="1515.05" y="4580.77" width="2.43" height="141.47" transform="translate(-3353.26 4178.92) rotate(-66.4)"/><rect class="cls-91" x="1514.07" y="4583" width="2.43" height="141.47" transform="translate(-3355.86 4179.1) rotate(-66.4)"/><rect class="cls-91" x="1513.1" y="4585.23" width="2.43" height="141.47" transform="translate(-3358.51 4179.81) rotate(-66.4)"/><rect class="cls-91" x="1512.13" y="4587.46" width="2.43" height="141.47" transform="translate(-3361.13 4180.26) rotate(-66.4)"/><rect class="cls-91" x="1511.15" y="4589.68" width="2.43" height="141.47" transform="translate(-3363.74 4180.52) rotate(-66.4)"/><rect class="cls-91" x="1510.18" y="4591.91" width="2.43" height="141.47" transform="translate(-3366.37 4181.06) rotate(-66.4)"/><rect class="cls-91" x="1509.21" y="4594.14" width="2.43" height="141.47" transform="translate(-3369 4181.59) rotate(-66.4)"/><rect class="cls-92" x="1508.24" y="4596.36" width="2.43" height="141.47" transform="translate(-3371.63 4182.03) rotate(-66.4)"/><rect class="cls-92" x="1507.26" y="4598.59" width="2.43" height="141.47" transform="translate(-3374.23 4182.21) rotate(-66.4)"/><rect class="cls-92" x="1506.29" y="4600.82" width="2.43" height="141.47" transform="translate(-3376.88 4182.92) rotate(-66.4)"/><rect class="cls-92" x="1505.32" y="4603.04" width="2.43" height="141.47" transform="translate(-3379.5 4183.36) rotate(-66.4)"/><rect class="cls-92" x="1504.34" y="4605.27" width="2.43" height="141.47" transform="translate(-3382.1 4183.54) rotate(-66.4)"/><rect class="cls-93" x="1503.37" y="4607.5" width="2.43" height="141.47" transform="translate(-3384.75 4184.25) rotate(-66.4)"/><rect class="cls-93" x="1502.4" y="4609.72" width="2.43" height="141.47" transform="translate(-3387.37 4184.7) rotate(-66.4)"/><rect class="cls-93" x="1501.43" y="4611.95" width="2.43" height="141.47" transform="translate(-3389.97 4184.88) rotate(-66.4)"/><rect class="cls-93" x="1500.45" y="4614.18" width="2.43" height="141.47" transform="translate(-3392.62 4185.58) rotate(-66.4)"/><rect class="cls-94" x="1499.48" y="4616.4" width="2.43" height="141.47" transform="translate(-3395.24 4186.03) rotate(-66.4)"/><rect class="cls-94" x="1498.51" y="4618.63" width="2.43" height="141.47" transform="translate(-3397.86 4186.39) rotate(-66.4)"/><rect class="cls-94" x="1497.53" y="4620.86" width="2.43" height="141.47" transform="translate(-3400.47 4186.73) rotate(-66.4)"/><rect class="cls-94" x="1496.56" y="4623.09" width="2.43" height="141.47" transform="translate(-3403.12 4187.36) rotate(-66.4)"/><rect class="cls-95" x="1495.59" y="4625.31" width="2.43" height="141.47" transform="translate(-3405.73 4187.72) rotate(-66.4)"/><rect class="cls-95" x="1494.62" y="4627.54" width="2.43" height="141.47" transform="translate(-3408.35 4188.06) rotate(-66.4)"/><rect class="cls-96" x="1493.64" y="4629.77" width="2.43" height="141.47" transform="translate(-3410.99 4188.69) rotate(-66.4)"/><rect class="cls-96" x="1492.67" y="4631.99" width="2.43" height="141.47" transform="translate(-3413.61 4189.14) rotate(-66.4)"/><rect class="cls-96" x="1491.7" y="4634.22" width="2.43" height="141.47" transform="translate(-3416.21 4189.31) rotate(-66.4)"/><rect class="cls-97" x="1490.72" y="4636.45" width="2.43" height="141.47" transform="translate(-3418.86 4190.02) rotate(-66.4)"/><rect class="cls-97" x="1489.75" y="4638.67" width="2.43" height="141.47" transform="translate(-3421.49 4190.47) rotate(-66.4)"/><rect class="cls-98" x="1488.78" y="4640.9" width="2.43" height="141.47" transform="translate(-3424.1 4190.83) rotate(-66.4)"/><rect class="cls-98" x="1487.81" y="4643.13" width="2.43" height="141.47" transform="translate(-3426.71 4191.17) rotate(-66.4)"/><rect class="cls-99" x="1486.83" y="4645.35" width="2.43" height="141.47" transform="translate(-3429.36 4191.8) rotate(-66.4)"/><rect class="cls-99" x="1485.86" y="4647.58" width="2.43" height="141.47" transform="translate(-3431.97 4192.16) rotate(-66.4)"/><rect class="cls-100" x="1484.89" y="4649.81" width="2.43" height="141.47" transform="translate(-3434.59 4192.5) rotate(-66.4)"/><rect class="cls-100" x="1483.91" y="4652.03" width="2.43" height="141.47" transform="translate(-3437.23 4193.13) rotate(-66.4)"/><rect class="cls-101" x="1482.94" y="4654.26" width="2.43" height="141.47" transform="translate(-3439.84 4193.49) rotate(-66.4)"/><rect class="cls-101" x="1481.97" y="4656.49" width="2.43" height="141.47" transform="translate(-3442.46 4193.83) rotate(-66.4)"/><rect class="cls-102" x="1481" y="4658.71" width="2.43" height="141.47" transform="translate(-3445.1 4194.46) rotate(-66.4)"/><rect class="cls-103" x="1480.02" y="4660.94" width="2.43" height="141.47" transform="translate(-3447.72 4194.83) rotate(-66.4)"/><rect class="cls-103" x="1479.05" y="4663.17" width="2.43" height="141.47" transform="translate(-3450.35 4195.35) rotate(-66.4)"/><rect class="cls-104" x="1478.08" y="4665.4" width="2.43" height="141.47" transform="translate(-3452.95 4195.61) rotate(-66.4)"/><rect class="cls-105" x="1477.11" y="4667.62" width="2.43" height="141.47" transform="translate(-3455.6 4196.24) rotate(-66.4)"/><rect class="cls-105" x="1476.13" y="4669.85" width="2.43" height="141.47" transform="translate(-3458.21 4196.6) rotate(-66.4)"/><rect class="cls-106" x="1475.16" y="4672.08" width="2.43" height="141.47" transform="translate(-3460.83 4196.94) rotate(-66.4)"/><rect class="cls-107" x="1474.19" y="4674.3" width="2.43" height="141.47" transform="translate(-3463.47 4197.57) rotate(-66.4)"/><rect class="cls-108" x="1473.21" y="4676.53" width="2.43" height="141.47" transform="translate(-3466.09 4197.93) rotate(-66.4)"/><rect class="cls-109" x="1472.24" y="4678.76" width="2.43" height="141.47" transform="translate(-3468.7 4198.27) rotate(-66.4)"/><rect class="cls-110" x="1471.27" y="4680.98" width="2.43" height="141.47" transform="translate(-3471.34 4198.9) rotate(-66.4)"/><rect class="cls-110" x="1470.3" y="4683.21" width="2.43" height="141.47" transform="translate(-3473.96 4199.26) rotate(-66.4)"/><rect class="cls-111" x="1469.32" y="4685.44" width="2.43" height="141.47" transform="translate(-3476.57 4199.6) rotate(-66.4)"/><rect class="cls-112" x="1468.35" y="4687.66" width="2.43" height="141.47" transform="translate(-3479.21 4200.23) rotate(-66.4)"/><rect class="cls-113" x="1467.38" y="4689.89" width="2.43" height="141.47" transform="translate(-3481.83 4200.6) rotate(-66.4)"/><rect class="cls-114" x="1466.4" y="4692.12" width="2.43" height="141.47" transform="translate(-3484.46 4201.12) rotate(-66.4)"/><rect class="cls-115" x="1465.43" y="4694.34" width="2.43" height="141.47" transform="translate(-3487.07 4201.38) rotate(-66.4)"/><rect class="cls-11" x="1464.46" y="4696.57" width="2.43" height="141.47" transform="translate(-3489.7 4201.93) rotate(-66.4)"/><rect class="cls-13" x="1463.49" y="4698.8" width="2.43" height="141.47" transform="translate(-3492.33 4202.45) rotate(-66.4)"/><rect class="cls-15" x="1462.51" y="4701.03" width="2.43" height="141.47" transform="translate(-3494.94 4202.71) rotate(-66.4)"/><rect class="cls-16" x="1461.54" y="4703.25" width="2.43" height="141.47" transform="translate(-3497.57 4203.26) rotate(-66.4)"/><rect class="cls-17" x="1460.57" y="4705.48" width="2.43" height="141.47" transform="translate(-3500.21 4203.79) rotate(-66.4)"/><rect class="cls-18" x="1459.59" y="4707.71" width="2.43" height="141.47" transform="translate(-3502.81 4204.04) rotate(-66.4)"/><rect class="cls-19" x="1458.62" y="4709.93" width="2.43" height="141.47" transform="translate(-3505.46 4204.67) rotate(-66.4)"/><rect class="cls-21" x="1457.65" y="4712.16" width="2.43" height="141.47" transform="translate(-3508.07 4205.04) rotate(-66.4)"/><rect class="cls-22" x="1456.68" y="4714.39" width="2.43" height="141.47" transform="translate(-3510.7 4205.56) rotate(-66.4)"/><rect class="cls-23" x="1455.7" y="4716.61" width="2.43" height="141.47" transform="translate(-3513.31 4205.82) rotate(-66.4)"/><rect class="cls-25" x="1454.73" y="4718.84" width="2.43" height="141.47" transform="translate(-3515.94 4206.37) rotate(-66.4)"/><rect class="cls-26" x="1453.76" y="4721.07" width="2.43" height="141.47" transform="translate(-3518.58 4206.89) rotate(-66.4)"/><rect class="cls-28" x="1452.78" y="4723.29" width="2.43" height="141.47" transform="translate(-3521.18 4207.15) rotate(-66.4)"/><rect class="cls-29" x="1451.81" y="4725.52" width="2.43" height="141.47" transform="translate(-3523.81 4207.7) rotate(-66.4)"/><rect class="cls-31" x="1450.84" y="4727.75" width="2.43" height="141.47" transform="translate(-3526.45 4208.23) rotate(-66.4)"/><rect class="cls-32" x="1449.87" y="4729.97" width="2.43" height="141.47" transform="translate(-3529.05 4208.48) rotate(-66.4)"/><rect class="cls-34" x="1448.89" y="4732.2" width="2.43" height="141.47" transform="translate(-3531.69 4209.03) rotate(-66.4)"/><rect class="cls-35" x="1447.92" y="4734.43" width="2.43" height="141.47" transform="translate(-3534.32 4209.56) rotate(-66.4)"/><rect class="cls-10" x="1446.95" y="4736.66" width="2.43" height="141.47" transform="translate(-3536.94 4210) rotate(-66.4)"/><rect class="cls-38" x="1445.97" y="4738.88" width="2.43" height="141.47" transform="translate(-3539.54 4210.17) rotate(-66.4)"/><rect class="cls-40" x="1445" y="4741.11" width="2.43" height="141.47" transform="translate(-3542.19 4210.89) rotate(-66.4)"/><rect class="cls-116" x="1444.03" y="4743.34" width="2.43" height="141.47" transform="translate(-3544.82 4211.33) rotate(-66.4)"/><rect class="cls-42" x="1443.06" y="4745.56" width="2.43" height="141.47" transform="translate(-3547.42 4211.59) rotate(-66.4)"/><rect class="cls-44" x="1442.08" y="4747.79" width="2.43" height="141.47" transform="translate(-3550.05 4212.14) rotate(-66.4)"/><rect class="cls-45" x="1441.11" y="4750.02" width="2.43" height="141.47" transform="translate(-3552.69 4212.66) rotate(-66.4)"/><rect class="cls-117" x="1440.14" y="4752.24" width="2.43" height="141.47" transform="translate(-3555.29 4212.92) rotate(-66.4)"/><rect class="cls-48" x="1439.16" y="4754.47" width="2.43" height="141.47" transform="translate(-3557.93 4213.47) rotate(-66.4)"/><rect class="cls-49" x="1438.19" y="4756.7" width="2.43" height="141.47" transform="translate(-3560.56 4214) rotate(-66.4)"/><rect class="cls-118" x="1437.22" y="4758.92" width="2.43" height="141.47" transform="translate(-3563.18 4214.44) rotate(-66.4)"/><rect class="cls-52" x="1436.25" y="4761.15" width="2.43" height="141.47" transform="translate(-3565.77 4214.61) rotate(-66.4)"/><rect class="cls-53" x="1435.27" y="4763.38" width="2.43" height="141.47" transform="translate(-3568.43 4215.33) rotate(-66.4)"/><rect class="cls-6" x="1434.3" y="4765.6" width="2.43" height="141.47" transform="translate(-3571.05 4215.72) rotate(-66.4)"/><polygon class="cls-55" points="1499.85 4865.77 1499.53 4866.49 1495.43 4866.49 1369.24 4811.36 1370.21 4809.14 1499.85 4865.77"/><polygon class="cls-56" points="1489.36 4866.49 1368.27 4813.59 1369.24 4811.36 1495.43 4866.49 1489.36 4866.49"/><polygon class="cls-119" points="1483.29 4866.49 1367.29 4815.81 1368.27 4813.59 1489.36 4866.49 1483.29 4866.49"/><polygon class="cls-120" points="1477.22 4866.49 1366.32 4818.04 1367.29 4815.81 1483.29 4866.49 1477.22 4866.49"/><polygon class="cls-60" points="1471.15 4866.49 1365.35 4820.27 1366.32 4818.04 1477.22 4866.49 1471.15 4866.49"/><polygon class="cls-61" points="1465.08 4866.49 1364.38 4822.5 1365.35 4820.27 1471.15 4866.49 1465.08 4866.49"/><polygon class="cls-121" points="1459.01 4866.49 1363.4 4824.72 1364.38 4822.5 1465.08 4866.49 1459.01 4866.49"/><polygon class="cls-63" points="1452.94 4866.49 1362.43 4826.95 1363.4 4824.72 1459.01 4866.49 1452.94 4866.49"/><polygon class="cls-122" points="1446.87 4866.49 1361.46 4829.18 1362.43 4826.95 1452.94 4866.49 1446.87 4866.49"/><polygon class="cls-123" points="1440.8 4866.49 1360.48 4831.4 1361.46 4829.18 1446.87 4866.49 1440.8 4866.49"/><polygon class="cls-124" points="1434.73 4866.49 1360.36 4834 1360.36 4831.68 1360.48 4831.4 1440.8 4866.49 1434.73 4866.49"/><polygon class="cls-68" points="1428.66 4866.49 1360.36 4836.65 1360.36 4834 1434.73 4866.49 1428.66 4866.49"/><polygon class="cls-69" points="1422.59 4866.49 1360.36 4839.31 1360.36 4836.65 1428.66 4866.49 1422.59 4866.49"/><polygon class="cls-70" points="1416.52 4866.49 1360.36 4841.96 1360.36 4839.31 1422.59 4866.49 1416.52 4866.49"/><polygon class="cls-125" points="1410.45 4866.49 1360.36 4844.61 1360.36 4841.96 1416.52 4866.49 1410.45 4866.49"/><polygon class="cls-126" points="1404.38 4866.49 1360.36 4847.26 1360.36 4844.61 1410.45 4866.49 1404.38 4866.49"/><polygon class="cls-127" points="1398.31 4866.49 1360.36 4849.91 1360.36 4847.26 1404.38 4866.49 1398.31 4866.49"/><polygon class="cls-128" points="1392.24 4866.49 1360.36 4852.56 1360.36 4849.91 1398.31 4866.49 1392.24 4866.49"/><polygon class="cls-4" points="1386.17 4866.49 1360.36 4855.22 1360.36 4852.56 1392.24 4866.49 1386.17 4866.49"/><polygon class="cls-4" points="1360.36 4855.22 1386.17 4866.49 1360.36 4866.49 1360.36 4855.22"/></g><path class="cls-8" d="M2347.94,5314,2108.5,5420.53a55.92,55.92,0,0,1-73.83-28.36l-14.25-32a55.94,55.94,0,0,1,28.36-73.83l239.45-106.54a55.92,55.92,0,0,1,73.83,28.36l14.24,32A55.92,55.92,0,0,1,2347.94,5314Z"/><path class="cls-5" d="M2348,5314.09l-239.44,106.54a55.92,55.92,0,0,1-73.83-28.35l-12.29-27.63a55.91,55.91,0,0,0,73.82,28.35l239.45-106.54a55.93,55.93,0,0,0,28.37-73.83l12.29,27.63A55.92,55.92,0,0,1,2348,5314.09Z"/><path class="cls-8" d="M1672.29,5216.93l244.65,94a55.92,55.92,0,0,1,32.15,72.26l-12.56,32.7a55.93,55.93,0,0,1-72.26,32.15l-244.65-94a55.91,55.91,0,0,1-32.15-72.25l12.56-32.71A55.93,55.93,0,0,1,1672.29,5216.93Z"/><path class="cls-5" d="M1863.94,5448.86l-244.65-94a55.92,55.92,0,0,1-32.15-72.26L1598,5254.4a55.94,55.94,0,0,0,32.15,72.26l244.66,94a55.92,55.92,0,0,0,72.26-32.14l-10.85,28.23A55.91,55.91,0,0,1,1863.94,5448.86Z"/><path class="cls-8" d="M2634.45,4925.66l-94,244.65a55.92,55.92,0,0,1-72.26,32.15l-32.7-12.56a55.93,55.93,0,0,1-32.15-72.26l94-244.65a55.91,55.91,0,0,1,72.25-32.15l32.71,12.56A55.93,55.93,0,0,1,2634.45,4925.66Z"/><path class="cls-5" d="M2635.73,4926.16l-94,244.65A55.94,55.94,0,0,1,2469.5,5203l-28.23-10.85a55.92,55.92,0,0,0,72.26-32.15l94-244.65a55.92,55.92,0,0,0-32.14-72.26l28.23,10.84A55.93,55.93,0,0,1,2635.73,4926.16Z"/><path class="cls-8" d="M2464,4588.08l139.79,149.48c19.5,20.85,15.9,51.53-8.05,68.52l-27.16,19.26c-23.95,17-59.17,13.85-78.68-7L2350.1,4668.86c-19.51-20.86-15.91-51.53,8-68.52l27.16-19.26C2409.25,4564.09,2444.48,4567.23,2464,4588.08Z"/><g class="cls-129"><polygon class="cls-8" points="2407.32 4564.08 2361.86 4600.85 2361.86 4564.08 2407.32 4564.08"/><polygon class="cls-8" points="2411.08 4564.08 2363.33 4602.71 2361.86 4600.88 2361.86 4600.85 2407.32 4564.08 2411.08 4564.08"/><polygon class="cls-8" points="2414.84 4564.08 2364.82 4604.55 2363.33 4602.71 2411.08 4564.08 2414.84 4564.08"/><polygon class="cls-8" points="2418.61 4564.08 2366.31 4606.39 2364.82 4604.55 2414.84 4564.08 2418.61 4564.08"/><polygon class="cls-8" points="2422.37 4564.08 2367.8 4608.23 2366.31 4606.39 2418.61 4564.08 2422.37 4564.08"/><polygon class="cls-8" points="2426.13 4564.08 2369.29 4610.07 2367.8 4608.23 2422.37 4564.08 2426.13 4564.08"/><polygon class="cls-8" points="2429.89 4564.08 2370.78 4611.91 2369.29 4610.07 2426.13 4564.08 2429.89 4564.08"/><polygon class="cls-8" points="2433.66 4564.08 2372.26 4613.75 2370.78 4611.91 2429.89 4564.08 2433.66 4564.08"/><polygon class="cls-8" points="2437.42 4564.08 2373.75 4615.59 2372.26 4613.75 2433.66 4564.08 2437.42 4564.08"/><polygon class="cls-8" points="2441.18 4564.08 2375.24 4617.43 2373.75 4615.59 2437.42 4564.08 2441.18 4564.08"/><polygon class="cls-8" points="2444.95 4564.08 2376.73 4619.27 2375.24 4617.43 2441.18 4564.08 2444.95 4564.08"/><polygon class="cls-8" points="2448.71 4564.08 2378.22 4621.11 2376.73 4619.27 2444.95 4564.08 2448.71 4564.08"/><polygon class="cls-8" points="2452.47 4564.08 2379.71 4622.95 2378.22 4621.11 2448.71 4564.08 2452.47 4564.08"/><polygon class="cls-8" points="2456.24 4564.08 2381.19 4624.79 2379.71 4622.95 2452.47 4564.08 2456.24 4564.08"/><polygon class="cls-8" points="2460 4564.08 2382.68 4626.63 2381.19 4624.79 2456.24 4564.08 2460 4564.08"/><polygon class="cls-8" points="2463.76 4564.08 2384.17 4628.47 2382.68 4626.63 2460 4564.08 2463.76 4564.08"/><polygon class="cls-8" points="2467.53 4564.08 2385.66 4630.31 2384.17 4628.47 2463.76 4564.08 2467.53 4564.08"/><polygon class="cls-8" points="2468.88 4564.08 2469.83 4565.26 2387.15 4632.15 2385.66 4630.31 2467.53 4564.08 2468.88 4564.08"/><rect class="cls-8" x="2376.06" y="4598.44" width="106.35" height="2.37" transform="translate(-2352.19 2551.3) rotate(-38.97)"/><rect class="cls-8" x="2377.55" y="4600.28" width="106.35" height="2.37" transform="translate(-2352.97 2552.51) rotate(-38.97)"/><rect class="cls-8" x="2379.04" y="4602.12" width="106.35" height="2.37" transform="translate(-2353.85 2553.99) rotate(-38.97)"/><rect class="cls-8" x="2380.52" y="4603.96" width="106.35" height="2.37" transform="translate(-2354.67 2555.33) rotate(-38.97)"/><rect class="cls-8" x="2382.01" y="4605.8" width="106.35" height="2.37" transform="translate(-2355.5 2556.68) rotate(-38.97)"/><rect class="cls-8" x="2383.5" y="4607.64" width="106.35" height="2.37" transform="translate(-2356.32 2558.02) rotate(-38.97)"/><rect class="cls-8" x="2384.99" y="4609.48" width="106.35" height="2.37" transform="translate(-2357.1 2559.24) rotate(-38.97)"/><rect class="cls-8" x="2386.48" y="4611.32" width="106.35" height="2.37" transform="translate(-2357.98 2560.71) rotate(-38.97)"/><rect class="cls-8" x="2387.97" y="4613.16" width="106.35" height="2.37" transform="translate(-2358.8 2562.06) rotate(-38.97)"/><rect class="cls-8" x="2389.46" y="4615" width="106.35" height="2.37" transform="translate(-2359.63 2563.41) rotate(-38.97)"/><rect class="cls-8" x="2390.94" y="4616.84" width="106.35" height="2.37" transform="translate(-2360.4 2564.62) rotate(-38.97)"/><rect class="cls-8" x="2392.43" y="4618.68" width="106.35" height="2.37" transform="translate(-2361.28 2566.1) rotate(-38.97)"/><rect class="cls-8" x="2393.92" y="4620.52" width="106.35" height="2.37" transform="translate(-2362.11 2567.44) rotate(-38.97)"/><rect class="cls-8" x="2395.41" y="4622.36" width="106.35" height="2.37" transform="translate(-2362.93 2568.79) rotate(-38.97)"/><rect class="cls-8" x="2396.9" y="4624.2" width="106.35" height="2.37" transform="translate(-2363.76 2570.13) rotate(-38.97)"/><rect class="cls-8" x="2398.39" y="4626.04" width="106.35" height="2.37" transform="translate(-2364.53 2571.35) rotate(-38.97)"/><rect class="cls-8" x="2399.87" y="4627.88" width="106.35" height="2.37" transform="translate(-2365.41 2572.82) rotate(-38.97)"/><rect class="cls-8" x="2401.36" y="4629.72" width="106.35" height="2.37" transform="translate(-2366.24 2574.17) rotate(-38.97)"/><rect class="cls-8" x="2402.85" y="4631.56" width="106.35" height="2.37" transform="translate(-2367.06 2575.51) rotate(-38.97)"/><rect class="cls-8" x="2404.34" y="4633.4" width="106.35" height="2.37" transform="translate(-2367.89 2576.86) rotate(-38.97)"/><rect class="cls-8" x="2405.83" y="4635.24" width="106.35" height="2.37" transform="translate(-2368.66 2578.08) rotate(-38.97)"/><rect class="cls-8" x="2407.32" y="4637.08" width="106.35" height="2.37" transform="translate(-2369.54 2579.55) rotate(-38.97)"/><rect class="cls-8" x="2408.8" y="4638.92" width="106.35" height="2.37" transform="translate(-2370.43 2581.06) rotate(-38.97)"/><rect class="cls-8" x="2410.29" y="4640.76" width="106.35" height="2.37" transform="translate(-2371.19 2582.24) rotate(-38.97)"/><rect class="cls-8" x="2411.78" y="4642.6" width="106.35" height="2.37" transform="translate(-2371.96 2583.46) rotate(-38.97)"/><rect class="cls-91" x="2413.27" y="4644.44" width="106.35" height="2.37" transform="translate(-2372.84 2584.93) rotate(-38.97)"/><rect class="cls-91" x="2414.76" y="4646.28" width="106.35" height="2.37" transform="translate(-2373.67 2586.28) rotate(-38.97)"/><rect class="cls-91" x="2416.25" y="4648.12" width="106.35" height="2.37" transform="translate(-2374.5 2587.62) rotate(-38.97)"/><rect class="cls-91" x="2417.73" y="4649.96" width="106.35" height="2.37" transform="translate(-2375.32 2588.97) rotate(-38.97)"/><rect class="cls-91" x="2419.22" y="4651.8" width="106.35" height="2.37" transform="translate(-2376.09 2590.19) rotate(-38.97)"/><rect class="cls-91" x="2420.71" y="4653.64" width="106.35" height="2.37" transform="translate(-2376.97 2591.66) rotate(-38.97)"/><rect class="cls-91" x="2422.2" y="4655.48" width="106.35" height="2.37" transform="translate(-2377.8 2593.01) rotate(-38.97)"/><rect class="cls-91" x="2423.69" y="4657.32" width="106.35" height="2.37" transform="translate(-2378.63 2594.35) rotate(-38.97)"/><rect class="cls-91" x="2425.18" y="4659.16" width="106.35" height="2.37" transform="translate(-2379.45 2595.7) rotate(-38.97)"/><rect class="cls-91" x="2426.67" y="4661" width="106.35" height="2.37" transform="translate(-2380.22 2596.91) rotate(-38.97)"/><rect class="cls-92" x="2428.15" y="4662.84" width="106.35" height="2.37" transform="translate(-2381.1 2598.39) rotate(-38.97)"/><rect class="cls-92" x="2429.64" y="4664.68" width="106.35" height="2.37" transform="translate(-2381.93 2599.73) rotate(-38.97)"/><rect class="cls-92" x="2431.13" y="4666.52" width="106.35" height="2.37" transform="translate(-2382.76 2601.08) rotate(-38.97)"/><rect class="cls-92" x="2432.62" y="4668.36" width="106.35" height="2.37" transform="translate(-2383.58 2602.43) rotate(-38.97)"/><rect class="cls-92" x="2434.11" y="4670.2" width="106.35" height="2.37" transform="translate(-2384.35 2603.64) rotate(-38.97)"/><rect class="cls-92" x="2435.6" y="4672.04" width="106.35" height="2.37" transform="translate(-2385.23 2605.12) rotate(-38.97)"/><rect class="cls-93" x="2437.08" y="4673.88" width="106.35" height="2.37" transform="translate(-2386.06 2606.46) rotate(-38.97)"/><rect class="cls-93" x="2438.57" y="4675.72" width="106.35" height="2.37" transform="translate(-2386.89 2607.81) rotate(-38.97)"/><rect class="cls-93" x="2440.06" y="4677.56" width="106.35" height="2.37" transform="translate(-2387.66 2609.02) rotate(-38.97)"/><rect class="cls-93" x="2441.55" y="4679.4" width="106.35" height="2.37" transform="translate(-2388.54 2610.5) rotate(-38.97)"/><rect class="cls-94" x="2443.04" y="4681.24" width="106.35" height="2.37" transform="translate(-2389.43 2612) rotate(-38.97)"/><rect class="cls-94" x="2444.53" y="4683.08" width="106.35" height="2.37" transform="translate(-2390.19 2613.19) rotate(-38.97)"/><rect class="cls-94" x="2446.01" y="4684.92" width="106.35" height="2.37" transform="translate(-2391.02 2614.53) rotate(-38.97)"/><rect class="cls-95" x="2447.5" y="4686.76" width="106.35" height="2.37" transform="translate(-2391.79 2615.75) rotate(-38.97)"/><rect class="cls-95" x="2448.99" y="4688.6" width="106.35" height="2.37" transform="translate(-2392.67 2617.23) rotate(-38.97)"/><rect class="cls-95" x="2450.48" y="4690.44" width="106.35" height="2.37" transform="translate(-2393.49 2618.57) rotate(-38.97)"/><rect class="cls-96" x="2451.97" y="4692.28" width="106.35" height="2.37" transform="translate(-2394.32 2619.92) rotate(-38.97)"/><rect class="cls-96" x="2453.46" y="4694.12" width="106.35" height="2.37" transform="translate(-2395.15 2621.26) rotate(-38.97)"/><rect class="cls-97" x="2454.95" y="4695.96" width="106.35" height="2.37" transform="translate(-2395.92 2622.48) rotate(-38.97)"/><rect class="cls-97" x="2456.43" y="4697.8" width="106.35" height="2.37" transform="translate(-2396.8 2623.95) rotate(-38.97)"/><rect class="cls-98" x="2457.92" y="4699.64" width="106.35" height="2.37" transform="translate(-2397.62 2625.3) rotate(-38.97)"/><rect class="cls-98" x="2459.41" y="4701.48" width="106.35" height="2.37" transform="translate(-2398.45 2626.64) rotate(-38.97)"/><rect class="cls-99" x="2460.9" y="4703.32" width="106.35" height="2.37" transform="translate(-2399.22 2627.86) rotate(-38.97)"/><rect class="cls-99" x="2462.39" y="4705.16" width="106.35" height="2.37" transform="translate(-2400.1 2629.34) rotate(-38.97)"/><rect class="cls-100" x="2463.88" y="4707" width="106.35" height="2.37" transform="translate(-2400.93 2630.68) rotate(-38.97)"/><rect class="cls-101" x="2465.36" y="4708.84" width="106.35" height="2.37" transform="translate(-2401.75 2632.03) rotate(-38.97)"/><rect class="cls-101" x="2466.85" y="4710.68" width="106.35" height="2.37" transform="translate(-2402.58 2633.37) rotate(-38.97)"/><rect class="cls-102" x="2468.34" y="4712.52" width="106.35" height="2.37" transform="translate(-2403.35 2634.59) rotate(-38.97)"/><rect class="cls-103" x="2469.83" y="4714.36" width="106.35" height="2.37" transform="translate(-2404.23 2636.06) rotate(-38.97)"/><rect class="cls-104" x="2471.32" y="4716.2" width="106.35" height="2.37" transform="translate(-2405.06 2637.41) rotate(-38.97)"/><rect class="cls-105" x="2472.81" y="4718.04" width="106.35" height="2.37" transform="translate(-2405.88 2638.75) rotate(-38.97)"/><rect class="cls-105" x="2474.29" y="4719.88" width="106.35" height="2.37" transform="translate(-2406.71 2640.1) rotate(-38.97)"/><rect class="cls-106" x="2475.78" y="4721.72" width="106.35" height="2.37" transform="translate(-2407.48 2641.31) rotate(-38.97)"/><rect class="cls-107" x="2477.27" y="4723.56" width="106.35" height="2.37" transform="matrix(0.78, -0.63, 0.63, 0.78, -2408.43, 2642.95)"/><rect class="cls-108" x="2478.76" y="4725.4" width="106.35" height="2.37" transform="translate(-2409.19 2644.14) rotate(-38.97)"/><rect class="cls-109" x="2480.25" y="4727.24" width="106.35" height="2.37" transform="translate(-2410.01 2645.48) rotate(-38.97)"/><rect class="cls-111" x="2481.74" y="4729.08" width="106.35" height="2.37" transform="translate(-2410.79 2646.7) rotate(-38.97)"/><rect class="cls-112" x="2483.22" y="4730.92" width="106.35" height="2.37" transform="translate(-2411.67 2648.17) rotate(-38.97)"/><rect class="cls-113" x="2484.71" y="4732.76" width="106.35" height="2.37" transform="translate(-2412.49 2649.52) rotate(-38.97)"/><rect class="cls-114" x="2486.2" y="4734.6" width="106.35" height="2.37" transform="translate(-2413.32 2650.86) rotate(-38.97)"/><rect class="cls-11" x="2487.69" y="4736.44" width="106.35" height="2.37" transform="translate(-2414.14 2652.21) rotate(-38.97)"/><rect class="cls-13" x="2489.18" y="4738.28" width="106.35" height="2.37" transform="translate(-2414.92 2653.42) rotate(-38.97)"/><rect class="cls-15" x="2490.67" y="4740.12" width="106.35" height="2.37" transform="translate(-2415.8 2654.9) rotate(-38.97)"/><rect class="cls-16" x="2492.16" y="4741.96" width="106.35" height="2.37" transform="translate(-2416.62 2656.25) rotate(-38.97)"/><rect class="cls-18" x="2493.64" y="4743.8" width="106.35" height="2.37" transform="translate(-2417.45 2657.59) rotate(-38.97)"/><rect class="cls-19" x="2495.13" y="4745.64" width="106.35" height="2.37" transform="translate(-2418.27 2658.94) rotate(-38.97)"/><rect class="cls-21" x="2496.62" y="4747.48" width="106.35" height="2.37" transform="translate(-2419.05 2660.15) rotate(-38.97)"/><rect class="cls-23" x="2498.11" y="4749.32" width="106.35" height="2.37" transform="translate(-2419.93 2661.63) rotate(-38.97)"/><rect class="cls-25" x="2499.6" y="4751.16" width="106.35" height="2.37" transform="translate(-2420.75 2662.97) rotate(-38.97)"/><rect class="cls-27" x="2501.09" y="4753" width="106.35" height="2.37" transform="translate(-2421.58 2664.32) rotate(-38.97)"/><rect class="cls-29" x="2502.57" y="4754.84" width="106.35" height="2.37" transform="translate(-2422.35 2665.53) rotate(-38.97)"/><rect class="cls-31" x="2504.06" y="4756.68" width="106.35" height="2.37" transform="translate(-2423.23 2667.01) rotate(-38.97)"/><rect class="cls-33" x="2505.55" y="4758.52" width="106.35" height="2.37" transform="translate(-2424.06 2668.36) rotate(-38.97)"/><rect class="cls-36" x="2507.04" y="4760.36" width="106.35" height="2.37" transform="translate(-2424.88 2669.7) rotate(-38.97)"/><rect class="cls-37" x="2508.53" y="4762.2" width="106.35" height="2.37" transform="translate(-2425.71 2671.05) rotate(-38.97)"/><rect class="cls-40" x="2510.02" y="4764.04" width="106.35" height="2.37" transform="translate(-2426.48 2672.26) rotate(-38.97)"/><rect class="cls-41" x="2511.5" y="4765.88" width="106.35" height="2.37" transform="translate(-2427.43 2673.9) rotate(-38.97)"/><rect class="cls-44" x="2512.99" y="4767.72" width="106.35" height="2.37" transform="translate(-2428.19 2675.08) rotate(-38.97)"/><rect class="cls-46" x="2514.48" y="4769.56" width="106.35" height="2.37" transform="translate(-2429.01 2676.43) rotate(-38.97)"/><rect class="cls-47" x="2515.97" y="4771.4" width="106.35" height="2.37" transform="translate(-2429.84 2677.77) rotate(-38.97)"/><rect class="cls-49" x="2517.46" y="4773.24" width="106.35" height="2.37" transform="translate(-2430.61 2678.99) rotate(-38.97)"/><rect class="cls-52" x="2518.95" y="4775.08" width="106.35" height="2.37" transform="translate(-2431.49 2680.47) rotate(-38.97)"/><rect class="cls-130" x="2520.43" y="4776.92" width="106.35" height="2.37" transform="translate(-2432.32 2681.81) rotate(-38.97)"/><rect class="cls-131" x="2521.92" y="4778.76" width="106.35" height="2.37" transform="translate(-2433.14 2683.16) rotate(-38.97)"/><rect class="cls-132" x="2523.41" y="4780.6" width="106.35" height="2.37" transform="translate(-2433.91 2684.37) rotate(-38.97)"/><rect class="cls-58" x="2524.9" y="4782.44" width="106.35" height="2.37" transform="translate(-2434.8 2685.85) rotate(-38.97)"/><rect class="cls-60" x="2526.39" y="4784.28" width="106.35" height="2.37" transform="translate(-2435.62 2687.19) rotate(-38.97)"/><rect class="cls-62" x="2527.88" y="4786.12" width="106.35" height="2.37" transform="translate(-2436.45 2688.54) rotate(-38.97)"/><polygon class="cls-133" points="2623.14 4754.78 2624.63 4756.62 2542.93 4822.71 2541.29 4822.71 2540.45 4821.67 2623.14 4754.78"/><polygon class="cls-123" points="2624.63 4756.62 2624.99 4757.07 2624.99 4759.37 2546.7 4822.71 2542.93 4822.71 2624.63 4756.62"/><polygon class="cls-67" points="2624.99 4762.41 2550.46 4822.71 2546.7 4822.71 2624.99 4759.37 2624.99 4762.41"/><polygon class="cls-134" points="2624.99 4765.46 2554.22 4822.71 2550.46 4822.71 2624.99 4762.41 2624.99 4765.46"/><polygon class="cls-135" points="2624.99 4768.5 2557.99 4822.71 2554.22 4822.71 2624.99 4765.46 2624.99 4768.5"/><polygon class="cls-72" points="2624.99 4771.55 2561.75 4822.71 2557.99 4822.71 2624.99 4768.5 2624.99 4771.55"/><polygon class="cls-136" points="2624.99 4774.59 2565.51 4822.71 2561.75 4822.71 2624.99 4771.55 2624.99 4774.59"/><polygon class="cls-4" points="2624.99 4777.64 2569.27 4822.71 2565.51 4822.71 2624.99 4774.59 2624.99 4777.64"/><polygon class="cls-4" points="2569.27 4822.71 2624.99 4777.64 2624.99 4822.71 2569.27 4822.71"/></g><path class="cls-8" d="M1501.09,4912.64l90,202.24a55.92,55.92,0,0,1-28.36,73.83l-32,14.24a55.92,55.92,0,0,1-73.83-28.36l-90-202.24a55.93,55.93,0,0,1,28.36-73.83l32-14.24A55.92,55.92,0,0,1,1501.09,4912.64Z"/><path class="cls-5" d="M1364.42,4966.79l94.94,213.37c11.18,25.14,43.12,35.35,71.35,22.79l27.62-12.29c-28.22,12.56-60.16,2.35-71.34-22.8l-94.94-213.36c-11.19-25.15,2.6-55.71,30.83-68.27l-27.63,12.29C1367,4911.08,1353.23,4941.64,1364.42,4966.79Z"/><path class="cls-7" d="M2263.43,4737.52c0,153.58-124.5,278.07-278.07,278.07S1707.3,4891.1,1707.3,4737.52c0,0-2.78-125.88,27.69-203.23s35.16-112.51,35.16-112.51,46.34,59.31,45.81,90.12c12.3-94,28.73-218.21,5.76-235.44,39.46,0,33.37,32.53,32.86,35,1.69-5.45,49.75-161.28,16.36-209.64,25.79,14.07,36.33,48.05,36.33,48.05s-11.72-110.16,8.21-126.57c5.86,44.54,24.61,110.17,24.61,110.17s45.57-127.5,17.5-144.61c41.1,4.75,49.3,84.84,77.43,93s44.53,71.49,44.53,114.85,28.13-1.17,28.13-1.17l8.21,38.68s16.4-48.05,22.26-53.91,7,80.86,24.62,91.41,17.57,62.14,4.68,91.43c53.91-86.74,57.43-75,57.43-75s-11.72,56.25,12.89,52.74c-29.3,37.5-78.52,158.21-45.71,145.32s45.71-34,45.71-34S2270.33,4598.54,2263.43,4737.52Z"/><path class="cls-9" d="M2197.2,4780.5c0,129.84-95,235.09-212.18,235.09s-212.18-105.25-212.18-235.09c0,0-2.12-106.43,21.13-171.83s26.83-95.12,26.83-95.12,35.36,50.14,35,76.19c9.39-79.49,21.93-184.48,4.4-199.05,30.11,0,25.46,27.5,25.07,29.59,1.3-4.6,38-136.35,12.49-177.23,19.68,11.89,27.72,40.62,27.72,40.62s-8.94-93.14,6.26-107c4.48,37.65,18.78,93.14,18.78,93.14s34.77-107.79,13.36-122.26c31.36,4,37.62,71.73,59.08,78.66s34,60.45,34,97.11,21.46-1,21.46-1l6.26,32.69s12.52-40.62,17-45.57,5.37,68.36,18.78,77.28,13.41,52.54,3.58,77.3c41.13-73.33,43.82-63.43,43.82-63.43s-8.95,47.57,9.83,44.59c-22.35,31.71-59.91,133.77-34.87,122.87s34.87-28.74,34.87-28.74S2202.47,4663,2197.2,4780.5Z"/><path class="cls-2" d="M1997.35,5015.27c-59.37,3-113.81-33-135.53-88.31-27-68.72-51.37-177.15-10.41-297.86,45.71-134.74,71.28-180.38,71.28-180.38s0,167.11,82.08,124.67,32.4-79.57,32.4-79.57c65.88-12.21,35.64,118,35.64,118-3.9,32.45.65,50.88,23.76,38.46,0,0,19.44-5.31,16.2-51.73,34.76,53,30.81,220.87,26.48,303.56-2.06,39.38-24.77,75-60.05,92.63C2055,5006.85,2027.4,5013.75,1997.35,5015.27Z"/></g></svg>